define(["three"], function(){
if (_typeface_js && _typeface_js.loadFace) _typeface_js.loadFace({"glyphs":{"0":{"ha":1074,"x_min":131,"x_max":943,"o":"m 131 547 q 138 630 131 597 q 165 682 146 663 q 215 709 183 701 q 294 717 247 717 l 779 717 q 858 709 826 717 q 909 682 890 701 q 935 630 928 663 q 943 547 943 597 l 943 169 q 935 87 943 119 q 909 35 928 54 q 858 8 890 15 q 779 0 826 0 l 294 0 q 215 8 247 0 q 165 35 183 15 q 138 87 146 54 q 131 169 131 119 l 131 547 m 281 129 l 793 129 l 793 594 l 281 594 l 281 129 "},"1":{"ha":1074,"x_min":339,"x_max":643,"o":"m 492 0 l 492 581 l 339 581 l 339 676 l 643 722 l 643 0 l 492 0 "},"2":{"ha":1074,"x_min":158,"x_max":925,"o":"m 194 576 q 203 647 194 619 q 231 689 211 674 q 281 710 250 704 q 358 717 313 717 l 726 717 q 803 710 772 717 q 854 689 835 704 q 882 647 874 674 q 890 576 890 619 l 890 531 q 885 478 890 499 q 869 442 881 457 q 840 413 858 426 q 797 385 822 400 l 376 129 l 793 129 l 793 235 l 925 197 l 925 140 q 917 70 925 97 q 889 27 908 43 q 838 6 869 11 q 761 0 807 0 l 158 0 l 158 65 q 160 99 158 83 q 172 129 163 114 q 199 160 181 144 q 249 196 217 176 l 744 501 l 744 594 l 336 594 l 336 447 l 194 483 l 194 576 "},"3":{"ha":1074,"x_min":153,"x_max":907,"o":"m 317 0 q 240 6 271 0 q 189 27 208 11 q 161 70 169 43 q 153 140 153 97 l 153 199 l 300 229 l 300 129 l 686 129 q 742 142 728 129 q 756 193 756 154 l 756 246 q 742 298 756 285 q 686 311 728 311 l 444 311 l 444 428 l 660 428 q 715 441 701 428 q 728 493 728 454 l 728 529 q 715 581 728 568 q 660 594 701 594 l 306 594 l 306 506 l 164 532 l 164 576 q 172 647 164 619 q 200 689 181 674 q 251 710 219 704 q 328 717 282 717 l 715 717 q 792 710 761 717 q 843 689 824 704 q 871 647 863 674 q 879 576 879 619 l 879 511 q 849 417 879 447 q 740 375 818 388 q 867 332 826 367 q 907 229 907 297 l 907 154 q 899 83 907 113 q 872 35 892 54 q 818 8 851 17 q 733 0 785 0 l 317 0 "},"4":{"ha":1074,"x_min":113,"x_max":981,"o":"m 656 278 l 656 599 l 264 278 l 656 278 m 656 -8 l 656 158 l 113 158 l 113 278 l 650 725 l 807 725 l 807 278 l 981 278 l 981 158 l 807 158 l 807 -8 l 656 -8 "},"5":{"ha":1074,"x_min":181,"x_max":957,"o":"m 181 319 l 221 717 l 840 717 l 828 594 l 328 594 l 311 456 q 466 469 394 464 q 601 474 538 474 q 957 231 957 474 q 860 45 957 100 q 563 -10 764 -10 q 360 -2 446 -10 q 217 19 275 6 l 181 158 q 373 131 279 140 q 558 121 467 121 q 744 146 686 121 q 803 238 803 171 q 745 325 803 301 q 568 349 688 349 q 397 342 493 349 q 181 319 301 335 "},"6":{"ha":1074,"x_min":154,"x_max":939,"o":"m 319 432 q 474 450 394 443 q 636 457 553 457 q 776 449 718 457 q 869 419 833 440 q 922 363 906 399 q 939 272 939 326 l 939 175 q 879 42 939 83 q 693 0 819 0 l 390 0 q 278 10 324 0 q 206 47 233 21 q 166 115 178 72 q 154 221 154 157 l 154 315 q 190 493 154 415 q 292 625 225 571 q 458 707 360 679 q 683 735 557 735 q 709 734 696 735 q 735 732 722 733 l 833 617 l 788 617 q 610 609 688 617 q 474 581 532 601 q 378 525 417 561 q 319 432 340 489 m 310 324 q 307 300 307 311 q 307 282 307 290 q 311 205 307 235 q 330 158 315 175 q 374 135 344 142 q 456 129 404 129 l 656 129 q 719 133 694 129 q 759 148 744 138 q 780 175 774 158 q 786 215 786 192 l 786 254 q 752 324 786 307 q 628 340 718 340 q 310 324 474 340 "},"7":{"ha":1074,"x_min":147,"x_max":943,"o":"m 386 -12 l 772 594 l 299 594 l 299 440 l 147 467 l 147 717 l 943 717 l 943 601 l 568 -12 l 386 -12 "},"8":{"ha":1074,"x_min":133,"x_max":940,"o":"m 719 311 l 353 311 q 298 298 311 311 q 285 246 285 285 l 285 193 q 298 141 285 153 q 353 129 311 129 l 719 129 q 774 142 761 129 q 788 193 788 154 l 788 246 q 774 298 788 285 q 719 311 761 311 m 704 594 l 369 594 q 314 581 328 594 q 300 529 300 568 l 300 493 q 314 441 300 454 q 369 428 328 428 l 704 428 q 759 441 746 428 q 772 493 772 454 l 772 529 q 759 581 772 568 q 704 594 746 594 m 760 717 q 837 710 806 717 q 888 689 868 704 q 915 647 907 674 q 924 576 924 619 l 924 511 q 893 418 924 449 q 788 372 863 388 q 903 330 865 364 q 940 229 940 296 l 940 154 q 932 83 940 113 q 904 35 924 54 q 851 8 885 17 q 765 0 817 0 l 307 0 q 222 8 256 0 q 169 35 189 17 q 141 83 149 54 q 133 154 133 113 l 133 229 q 171 330 133 296 q 286 372 208 364 q 180 418 211 388 q 149 511 149 449 l 149 576 q 157 647 149 619 q 185 689 165 674 q 235 710 204 704 q 313 717 267 717 l 760 717 "},"9":{"ha":1074,"x_min":149,"x_max":932,"o":"m 776 394 q 781 438 781 419 q 776 517 781 486 q 757 565 772 547 q 712 588 742 582 q 631 594 682 594 l 432 594 q 368 590 393 594 q 328 574 343 585 q 306 547 313 564 q 300 506 300 531 l 300 465 q 308 420 300 438 q 334 393 315 403 q 383 380 353 383 q 460 376 414 376 q 604 381 525 376 q 776 394 683 385 m 768 285 q 614 267 693 274 q 451 261 535 261 q 312 269 369 261 q 218 299 254 278 q 165 356 182 319 q 149 446 149 392 l 149 542 q 208 675 149 633 q 393 717 267 717 l 696 717 q 808 706 763 717 q 881 670 853 696 q 920 602 908 644 q 932 496 932 560 l 932 401 q 897 224 932 301 q 793 92 861 146 q 627 11 725 39 q 403 -17 529 -17 q 376 -17 390 -17 q 351 -15 364 -17 l 253 100 l 299 100 q 477 108 399 100 q 613 135 556 115 q 709 192 671 156 q 768 285 747 228 "}," ":{"ha":538,"x_min":0,"x_max":0,"o":""},"\u0005":{"ha":694,"x_min":144,"x_max":547,"o":"m 144 881 l 226 881 q 258 805 229 828 q 347 782 288 782 q 435 805 407 782 q 467 881 464 828 l 547 881 q 492 731 540 779 q 347 682 444 682 q 201 731 250 682 q 144 881 151 779 "},"\u0006":{"ha":694,"x_min":275,"x_max":421,"o":"m 275 693 l 275 856 l 421 856 l 421 693 l 275 693 "},"\b":{"ha":694,"x_min":174,"x_max":522,"o":"m 174 825 q 187 893 174 861 q 224 949 200 925 q 279 986 247 972 q 347 1000 311 1000 q 415 986 383 1000 q 471 949 447 972 q 508 893 494 925 q 522 825 522 861 q 508 756 522 788 q 471 700 494 724 q 415 663 447 676 q 347 650 383 650 q 279 663 311 650 q 224 700 247 676 q 187 756 200 724 q 174 825 174 788 m 261 825 q 287 763 261 789 q 349 738 313 738 q 410 763 385 738 q 435 825 435 789 q 410 886 435 861 q 349 911 385 911 q 287 886 313 911 q 261 825 261 861 "},"\n":{"ha":694,"x_min":206,"x_max":626,"o":"m 276 664 l 206 664 l 296 899 l 424 899 l 276 664 m 383 664 l 493 899 l 626 899 l 454 664 l 383 664 "},"\u000b":{"ha":694,"x_min":229,"x_max":450,"o":"m 415 0 q 349 -72 371 -37 q 328 -144 328 -106 q 341 -186 328 -174 q 388 -199 354 -199 l 450 -199 l 450 -304 l 385 -304 q 267 -275 306 -304 q 229 -182 229 -246 q 261 -92 229 -136 q 356 0 293 -49 l 415 0 "},"\f":{"ha":694,"x_min":146,"x_max":549,"o":"m 146 899 l 233 899 l 347 757 l 460 899 l 549 899 l 421 663 l 274 663 l 146 899 "},"\r":{"ha":404,"x_min":131,"x_max":274,"o":"m 131 0 l 131 588 l 274 588 l 274 0 l 131 0 "},"\u0019":{"ha":232,"x_min":-232,"x_max":463,"o":"m 463 739 l -142 -22 l -232 -22 l 374 739 l 463 739 "},"\u001a":{"ha":1168,"x_min":131,"x_max":1038,"o":"m 131 0 l 131 588 l 754 588 l 754 482 l 275 482 l 275 329 l 533 329 l 533 219 l 275 219 l 275 0 l 131 0 m 894 0 l 894 588 l 1038 588 l 1038 0 l 894 0 "},"\u001b":{"ha":1531,"x_min":131,"x_max":1500,"o":"m 131 0 l 131 588 l 754 588 l 754 482 l 275 482 l 275 329 l 533 329 l 533 219 l 275 219 l 275 0 l 131 0 m 894 0 l 894 588 l 1039 588 l 1039 110 l 1500 110 l 1500 0 l 894 0 "},"\u001c":{"ha":949,"x_min":75,"x_max":888,"o":"m 183 0 l 183 199 l 75 124 l 75 268 l 183 343 l 183 717 l 350 717 l 350 443 l 569 596 l 569 449 l 350 296 l 350 135 l 888 135 l 888 0 l 183 0 "},"\u001d":{"ha":767,"x_min":38,"x_max":736,"o":"m 131 0 l 131 157 l 38 90 l 38 210 l 131 275 l 131 588 l 275 588 l 275 360 l 474 500 l 474 378 l 275 239 l 275 110 l 736 110 l 736 0 l 131 0 "},"\u001e":{"ha":947,"x_min":85,"x_max":854,"o":"m 85 0 l 85 78 l 586 589 l 135 589 l 135 717 l 854 717 l 854 646 l 346 135 l 854 135 l 854 0 l 85 0 m 272 1028 l 360 1028 l 474 886 l 586 1028 l 675 1028 l 547 792 l 400 792 l 272 1028 "},"\u001f":{"ha":856,"x_min":97,"x_max":760,"o":"m 97 0 l 97 64 l 528 482 l 140 482 l 140 588 l 760 588 l 760 529 l 321 108 l 760 108 l 760 0 l 97 0 m 226 899 l 314 899 l 428 757 l 540 899 l 629 899 l 501 663 l 354 663 l 226 899 "},"!":{"ha":533,"x_min":157,"x_max":372,"o":"m 210 292 l 158 717 l 372 717 l 321 292 l 210 292 m 314 199 l 338 199 q 366 188 360 199 q 372 151 372 176 l 372 47 q 369 19 372 29 q 360 6 367 10 q 342 1 354 1 q 314 0 331 0 l 215 0 l 192 0 q 163 11 169 0 q 157 47 157 22 l 157 151 q 169 192 157 186 q 215 199 181 199 l 314 199 "},"\"":{"ha":417,"x_min":61,"x_max":356,"o":"m 156 974 l 156 597 l 61 597 l 61 974 l 156 974 m 356 974 l 356 597 l 261 597 l 261 974 l 356 974 "},"#":{"ha":1068,"x_min":60,"x_max":1008,"o":"m 626 989 l 517 681 l 690 681 l 801 989 l 913 989 l 804 681 l 1008 681 l 974 582 l 768 582 l 706 403 l 924 403 l 889 304 l 671 304 l 561 -3 l 449 -3 l 558 304 l 383 304 l 274 -3 l 161 -3 l 269 304 l 60 304 l 96 403 l 306 403 l 368 582 l 144 582 l 179 681 l 404 681 l 514 989 l 626 989 m 657 582 l 481 582 l 418 403 l 594 403 l 657 582 "},"$":{"ha":1074,"x_min":135,"x_max":939,"o":"m 794 614 l 604 614 l 604 424 l 760 424 q 844 416 810 424 q 900 390 879 408 q 930 338 921 371 q 939 254 939 304 l 939 169 q 930 86 939 119 q 900 34 921 53 q 844 8 879 15 q 760 0 810 0 l 604 0 l 604 -181 l 489 -181 l 489 0 l 313 0 q 233 7 267 0 q 177 31 199 14 q 145 76 156 47 q 135 150 135 106 l 135 181 l 274 204 l 274 108 l 489 108 l 489 299 l 340 299 q 256 306 290 299 q 201 333 222 314 q 172 385 181 351 q 163 468 163 418 l 163 547 q 172 631 163 597 q 201 683 181 664 q 256 709 222 701 q 340 717 290 717 l 489 717 l 489 858 l 604 858 l 604 717 l 747 717 q 882 687 839 717 q 925 576 925 657 l 925 544 l 794 515 l 794 614 m 489 424 l 489 614 l 289 614 l 289 424 l 489 424 m 604 108 l 811 108 l 811 299 l 604 299 l 604 108 "},"%":{"ha":1110,"x_min":61,"x_max":1047,"o":"m 61 528 q 78 611 61 572 q 124 678 94 650 q 192 723 153 707 q 275 739 231 739 q 358 722 319 739 q 426 677 397 706 q 471 610 454 649 q 488 528 488 572 q 470 444 488 483 q 424 376 453 406 q 356 330 394 347 q 275 313 318 313 q 193 330 232 313 q 125 376 154 347 q 78 444 96 406 q 61 528 61 483 m 156 525 q 165 480 156 501 q 190 442 174 458 q 227 417 206 426 q 274 407 249 407 q 358 442 324 407 q 393 525 393 476 q 383 572 393 550 q 358 609 374 593 q 320 635 342 625 q 274 644 299 644 q 190 609 225 644 q 156 525 156 574 m 715 190 q 724 145 715 167 q 749 108 733 124 q 787 82 765 92 q 833 72 808 72 q 918 107 883 72 q 953 190 953 142 q 943 237 953 215 q 917 274 933 258 q 880 300 901 290 q 833 310 858 310 q 750 274 785 310 q 715 190 715 239 m 621 192 q 638 275 621 236 q 683 342 654 314 q 750 388 711 371 q 833 404 789 404 q 917 388 878 404 q 985 342 956 371 q 1031 275 1014 314 q 1047 192 1047 236 q 1030 108 1047 147 q 983 40 1013 69 q 915 -6 954 11 q 833 -22 876 -22 q 751 -6 790 -22 q 683 40 713 11 q 638 108 654 69 q 621 192 621 147 m 901 739 l 297 -22 l 207 -22 l 811 739 l 901 739 "},"&":{"ha":1144,"x_min":125,"x_max":1094,"o":"m 304 0 q 219 8 254 0 q 164 34 185 15 q 134 86 143 53 q 125 169 125 119 l 125 217 q 130 263 125 244 q 146 297 135 282 q 174 324 157 311 q 214 350 190 336 l 360 438 q 313 489 328 464 q 299 546 299 514 l 299 586 q 342 690 299 663 q 476 717 385 717 l 621 717 q 703 710 669 717 q 758 688 738 704 q 789 644 779 672 q 799 572 799 615 l 799 529 l 669 507 l 669 603 l 435 603 l 435 551 l 772 271 l 939 410 l 1033 328 l 868 190 l 1094 0 l 876 0 l 758 100 l 694 43 q 663 19 678 28 q 632 7 647 11 q 599 1 617 3 q 560 0 582 0 l 304 0 m 265 125 l 597 125 l 664 182 l 449 361 l 265 247 l 265 125 "},"'":{"ha":215,"x_min":61,"x_max":156,"o":"m 156 974 l 156 597 l 61 597 l 61 974 l 156 974 "},"(":{"ha":460,"x_min":115,"x_max":383,"o":"m 235 744 l 383 744 q 249 358 249 543 q 383 -28 249 174 l 235 -28 q 115 358 115 157 q 235 744 115 560 "},")":{"ha":460,"x_min":76,"x_max":346,"o":"m 225 744 q 346 358 346 557 q 225 -28 346 160 l 76 -28 q 211 358 211 174 q 76 744 211 543 l 225 744 "},"*":{"ha":694,"x_min":119,"x_max":575,"o":"m 347 446 l 256 279 l 174 339 l 304 478 l 119 514 l 150 608 l 321 526 l 301 717 l 393 717 l 372 526 l 543 608 l 575 514 l 389 478 l 519 339 l 439 279 l 347 446 "},"+":{"ha":1157,"x_min":172,"x_max":985,"o":"m 626 828 l 626 461 l 985 461 l 985 367 l 626 367 l 626 0 l 531 0 l 531 367 l 172 367 l 172 461 l 531 461 l 531 828 l 626 828 "},",":{"ha":460,"x_min":117,"x_max":336,"o":"m 279 215 l 303 215 q 330 203 324 215 q 336 164 336 190 l 336 21 l 199 -185 l 117 -185 l 235 26 l 179 26 l 156 26 q 128 39 135 26 q 122 78 122 51 l 122 164 q 124 194 122 183 q 133 209 126 204 q 150 215 139 214 q 179 215 161 215 l 279 215 "},"-":{"ha":458,"x_min":67,"x_max":390,"o":"m 67 299 l 67 442 l 390 442 l 390 299 l 67 299 "},".":{"ha":460,"x_min":122,"x_max":338,"o":"m 279 215 l 304 215 q 331 203 325 215 q 338 164 338 190 l 338 51 q 335 22 338 32 q 326 6 332 11 q 308 1 319 1 q 279 0 297 0 l 181 0 l 156 0 q 128 13 135 0 q 122 51 122 25 l 122 164 q 125 194 122 183 q 134 209 128 204 q 151 215 140 214 q 181 215 163 215 l 279 215 "},"/":{"ha":386,"x_min":-33,"x_max":419,"o":"m -33 -22 l 328 739 l 419 739 l 56 -22 l -33 -22 "},":":{"ha":460,"x_min":122,"x_max":338,"o":"m 279 215 l 304 215 q 331 203 325 215 q 338 164 338 190 l 338 51 q 335 22 338 32 q 326 6 332 11 q 308 1 319 1 q 279 0 297 0 l 181 0 l 156 0 q 128 13 135 0 q 122 51 122 25 l 122 164 q 125 194 122 183 q 134 209 128 204 q 151 215 140 214 q 181 215 163 215 l 279 215 m 279 589 l 304 589 q 331 576 325 589 q 338 538 338 564 l 338 425 q 335 395 338 406 q 326 380 332 385 q 308 374 319 375 q 279 374 297 374 l 181 374 l 156 374 q 128 386 135 374 q 122 425 122 399 l 122 538 q 125 567 122 557 q 134 583 128 578 q 151 588 140 588 q 181 589 163 589 l 279 589 "},";":{"ha":460,"x_min":117,"x_max":336,"o":"m 279 215 l 303 215 q 330 203 324 215 q 336 164 336 190 l 336 21 l 199 -185 l 117 -185 l 235 26 l 179 26 l 156 26 q 128 39 135 26 q 122 78 122 51 l 122 164 q 124 194 122 183 q 133 209 126 204 q 150 215 139 214 q 179 215 161 215 l 279 215 m 279 589 l 303 589 q 330 576 324 589 q 336 538 336 564 l 336 425 q 334 395 336 406 q 326 380 332 385 q 308 374 319 375 q 279 374 297 374 l 179 374 l 156 374 q 128 386 135 374 q 122 425 122 399 l 122 538 q 124 567 122 557 q 133 583 126 578 q 150 588 139 588 q 179 589 161 589 l 279 589 "},"<":{"ha":1157,"x_min":179,"x_max":978,"o":"m 978 682 l 321 414 l 978 147 l 978 43 l 179 371 l 179 458 l 978 786 l 978 682 "},"=":{"ha":1157,"x_min":172,"x_max":985,"o":"m 985 596 l 985 501 l 172 501 l 172 596 l 985 596 m 985 326 l 985 232 l 172 232 l 172 326 l 985 326 "},">":{"ha":1157,"x_min":179,"x_max":978,"o":"m 978 458 l 978 371 l 179 43 l 179 147 l 838 414 l 179 682 l 179 786 l 978 458 "},"?":{"ha":919,"x_min":147,"x_max":753,"o":"m 367 290 l 367 390 l 607 536 l 607 599 l 288 599 l 288 508 l 147 531 l 147 569 q 297 717 147 717 l 581 717 q 710 685 668 717 q 753 583 753 653 l 753 469 l 510 328 l 510 290 l 367 290 m 486 199 l 510 199 q 538 188 532 199 q 543 151 543 176 l 543 47 q 540 19 543 29 q 531 6 538 10 q 514 1 525 1 q 486 0 503 0 l 386 0 l 364 0 q 335 11 342 0 q 329 47 329 22 l 329 151 q 340 192 329 186 q 386 199 351 199 l 486 199 "},"@":{"ha":1389,"x_min":72,"x_max":1318,"o":"m 807 322 l 847 482 q 801 575 836 543 q 713 607 765 607 q 625 583 665 607 q 555 519 585 560 q 508 422 525 478 q 492 303 492 367 q 524 192 492 231 q 618 154 557 154 q 735 200 683 154 q 807 322 788 246 m 871 579 l 910 657 l 999 657 l 900 267 q 894 226 894 244 q 963 163 894 163 q 1031 180 994 163 q 1104 232 1068 197 q 1188 356 1157 282 q 1219 517 1219 431 q 1186 676 1219 603 q 1092 801 1153 749 q 944 882 1031 853 q 751 911 858 911 q 442 833 572 911 q 240 631 311 756 q 169 353 169 506 q 211 144 169 232 q 342 -12 253 56 q 499 -92 408 -62 q 697 -121 590 -121 q 920 -87 813 -121 q 1118 8 1028 -54 l 1156 -47 q 706 -199 954 -199 q 279 -72 446 -199 q 72 354 72 88 q 107 566 72 467 q 210 749 142 665 q 447 932 308 869 q 757 994 585 994 q 972 963 874 994 q 1139 878 1069 931 q 1272 722 1226 810 q 1318 529 1318 633 q 1276 315 1318 410 q 1150 156 1233 221 q 1048 99 1103 118 q 936 79 993 79 q 800 186 800 79 l 800 199 q 596 81 726 81 q 438 138 492 81 q 383 306 383 196 q 408 455 383 386 q 477 574 433 524 q 580 652 521 624 q 707 681 639 681 q 871 579 822 681 "},"A":{"ha":1071,"x_min":46,"x_max":1024,"o":"m 46 0 l 451 717 l 613 717 l 1024 0 l 836 0 l 750 157 l 296 157 l 213 0 l 46 0 m 367 286 l 681 286 l 526 578 l 367 286 "},"B":{"ha":1103,"x_min":183,"x_max":964,"o":"m 183 0 l 183 717 l 797 717 q 919 685 881 717 q 958 578 958 653 l 958 490 q 926 407 958 438 q 835 369 894 376 q 931 326 897 361 q 964 232 964 290 l 964 140 q 753 0 964 0 l 183 0 m 728 311 l 347 311 l 347 129 l 728 129 q 790 141 771 129 q 808 193 808 153 l 808 247 q 790 299 808 288 q 728 311 771 311 m 728 600 l 347 600 l 347 429 l 728 429 q 785 439 767 429 q 804 481 804 449 l 804 549 q 785 590 804 581 q 728 600 767 600 "},"C":{"ha":1113,"x_min":168,"x_max":951,"o":"m 785 589 l 335 589 l 335 135 l 785 135 l 785 289 l 951 254 l 951 169 q 942 86 951 119 q 913 34 933 53 q 858 8 892 15 q 774 0 824 0 l 346 0 q 262 8 296 0 q 207 34 228 15 q 177 86 186 53 q 168 169 168 119 l 168 547 q 177 631 168 597 q 207 683 186 664 q 262 709 228 701 q 346 717 296 717 l 774 717 q 858 709 824 717 q 913 683 892 701 q 942 631 933 664 q 951 547 951 597 l 951 479 l 785 453 l 785 589 "},"D":{"ha":1176,"x_min":183,"x_max":1054,"o":"m 183 0 l 183 717 l 644 717 q 951 624 847 717 q 1054 363 1054 531 q 1013 181 1054 261 q 896 56 971 101 q 770 12 843 24 q 601 0 697 0 l 183 0 m 350 135 l 565 135 q 703 146 644 135 q 802 183 763 157 q 862 254 842 210 q 882 365 882 299 q 823 532 882 475 q 646 589 764 589 l 350 589 l 350 135 "},"E":{"ha":1049,"x_min":183,"x_max":924,"o":"m 183 0 l 183 717 l 917 717 l 917 594 l 350 594 l 350 435 l 681 435 l 681 313 l 350 313 l 350 135 l 924 135 l 924 0 l 183 0 "},"F":{"ha":932,"x_min":183,"x_max":908,"o":"m 183 0 l 183 717 l 908 717 l 908 592 l 350 592 l 350 403 l 651 403 l 651 272 l 350 272 l 350 0 l 183 0 "},"G":{"ha":1188,"x_min":168,"x_max":1018,"o":"m 856 589 l 335 589 l 335 135 l 856 135 l 856 294 l 583 294 l 583 417 l 1018 417 l 1018 169 q 1009 86 1018 119 q 979 34 1000 53 q 924 8 958 15 q 840 0 890 0 l 346 0 q 262 8 296 0 q 207 34 228 15 q 177 86 186 53 q 168 169 168 119 l 168 547 q 177 631 168 597 q 207 683 186 664 q 262 709 228 701 q 346 717 296 717 l 840 717 q 923 710 889 717 q 978 684 957 703 q 1008 634 999 665 q 1018 554 1018 603 l 1018 538 l 856 508 l 856 589 "},"H":{"ha":1222,"x_min":183,"x_max":1039,"o":"m 183 0 l 183 717 l 350 717 l 350 439 l 871 439 l 871 717 l 1039 717 l 1039 0 l 871 0 l 871 308 l 350 308 l 350 0 l 183 0 "},"I":{"ha":533,"x_min":183,"x_max":350,"o":"m 183 0 l 183 717 l 350 717 l 350 0 l 183 0 "},"J":{"ha":926,"x_min":110,"x_max":772,"o":"m 288 0 q 203 8 238 0 q 149 34 169 15 q 119 86 128 53 q 110 169 110 119 l 110 318 l 278 350 l 278 135 l 606 135 l 606 717 l 772 717 l 772 169 q 763 86 772 119 q 733 34 754 53 q 678 8 713 15 q 594 0 644 0 l 288 0 "},"K":{"ha":1103,"x_min":183,"x_max":1049,"o":"m 183 0 l 183 717 l 351 717 l 351 418 l 749 717 l 990 717 l 515 379 l 1049 0 l 781 0 l 351 315 l 351 0 l 183 0 "},"L":{"ha":949,"x_min":183,"x_max":888,"o":"m 183 0 l 183 717 l 350 717 l 350 135 l 888 135 l 888 0 l 183 0 "},"M":{"ha":1286,"x_min":182,"x_max":1118,"o":"m 182 0 l 182 717 l 317 717 l 654 283 l 985 717 l 1118 717 l 1118 0 l 964 0 l 964 443 q 965 473 964 454 q 969 519 967 492 q 948 476 958 496 q 928 444 938 457 l 658 86 l 625 86 l 356 446 q 332 481 343 463 q 313 519 321 499 q 317 443 317 475 l 317 0 l 182 0 "},"N":{"ha":1207,"x_min":182,"x_max":1025,"o":"m 182 0 l 182 717 l 296 717 l 800 294 q 842 258 822 276 q 882 217 863 239 q 877 292 879 261 q 875 340 875 324 l 875 717 l 1025 717 l 1025 0 l 911 0 l 385 443 q 355 471 369 457 q 325 501 340 485 q 331 431 329 460 q 332 388 332 403 l 332 0 l 182 0 "},"O":{"ha":1219,"x_min":168,"x_max":1051,"o":"m 335 135 l 885 135 l 885 589 l 335 589 l 335 135 m 168 547 q 177 631 168 597 q 207 683 186 664 q 262 709 228 701 q 346 717 296 717 l 874 717 q 958 709 924 717 q 1013 683 992 701 q 1042 631 1033 664 q 1051 547 1051 597 l 1051 169 q 1042 86 1051 119 q 1013 34 1033 53 q 958 8 992 15 q 874 0 924 0 l 346 0 q 262 8 296 0 q 207 34 228 15 q 177 86 186 53 q 168 169 168 119 l 168 547 "},"P":{"ha":1032,"x_min":183,"x_max":958,"o":"m 183 0 l 183 717 l 797 717 q 919 685 881 717 q 958 578 958 653 l 958 418 q 919 311 958 343 q 797 279 881 279 l 347 279 l 347 0 l 183 0 m 722 593 l 347 593 l 347 403 l 722 403 q 779 413 761 403 q 797 460 797 424 l 797 536 q 779 583 797 572 q 722 593 761 593 "},"Q":{"ha":1219,"x_min":168,"x_max":1051,"o":"m 335 135 l 581 135 l 514 290 l 635 339 l 732 135 l 885 135 l 885 589 l 335 589 l 335 135 m 168 547 q 177 631 168 597 q 207 683 186 664 q 262 709 228 701 q 346 717 296 717 l 874 717 q 958 709 924 717 q 1013 683 992 701 q 1042 631 1033 664 q 1051 547 1051 597 l 1051 169 q 1042 86 1051 119 q 1013 34 1033 53 q 958 8 992 15 q 874 0 924 0 l 796 0 l 886 -185 l 721 -185 l 640 0 l 346 0 q 262 8 296 0 q 207 34 228 15 q 177 86 186 53 q 168 169 168 119 l 168 547 "},"R":{"ha":1114,"x_min":183,"x_max":1033,"o":"m 183 0 l 183 717 l 797 717 q 919 685 881 717 q 958 578 958 653 l 958 410 q 919 303 958 335 q 797 271 881 271 l 703 271 l 1033 0 l 794 0 l 506 271 l 347 271 l 347 0 l 183 0 m 722 593 l 347 593 l 347 393 l 722 393 q 779 403 761 393 q 797 450 797 414 l 797 536 q 779 583 797 572 q 722 593 761 593 "},"S":{"ha":1124,"x_min":160,"x_max":961,"o":"m 804 592 l 335 592 l 335 438 l 782 438 q 867 430 832 438 q 922 403 901 422 q 952 351 943 385 q 961 268 961 318 l 961 169 q 952 86 961 119 q 922 34 943 53 q 867 8 901 15 q 782 0 832 0 l 339 0 q 254 8 289 0 q 199 34 219 15 q 169 86 178 53 q 160 169 160 119 l 160 189 l 307 219 l 307 135 l 814 135 l 814 299 l 367 299 q 283 306 317 299 q 228 333 249 314 q 198 385 207 351 q 189 468 189 418 l 189 547 q 198 631 189 597 q 228 683 207 664 q 283 709 249 701 q 367 717 317 717 l 774 717 q 855 710 821 717 q 910 685 889 703 q 942 636 932 667 q 951 560 951 606 l 951 544 l 804 510 l 804 592 "},"T":{"ha":868,"x_min":21,"x_max":847,"o":"m 517 589 l 517 0 l 350 0 l 350 589 l 21 589 l 21 717 l 847 717 l 847 589 l 517 589 "},"U":{"ha":1175,"x_min":183,"x_max":992,"o":"m 350 717 l 350 135 l 825 135 l 825 717 l 992 717 l 992 169 q 983 86 992 119 q 953 34 974 53 q 898 8 932 15 q 814 0 864 0 l 361 0 q 277 8 311 0 q 222 34 243 15 q 192 86 201 53 q 183 169 183 119 l 183 717 l 350 717 "},"V":{"ha":946,"x_min":11,"x_max":935,"o":"m 425 0 l 11 717 l 201 717 l 492 199 l 768 717 l 935 717 l 540 0 l 425 0 "},"W":{"ha":1286,"x_min":54,"x_max":1232,"o":"m 331 0 l 54 717 l 226 717 l 408 236 l 599 717 l 715 717 l 910 236 l 1083 717 l 1232 717 l 956 0 l 843 0 l 646 496 l 446 0 l 331 0 "},"X":{"ha":997,"x_min":68,"x_max":1001,"o":"m 74 0 l 414 368 l 68 717 l 289 717 l 518 474 l 736 717 l 928 717 l 615 388 l 1001 0 l 775 0 l 513 278 l 271 0 l 74 0 "},"Y":{"ha":933,"x_min":11,"x_max":922,"o":"m 383 0 l 383 321 l 11 717 l 233 717 l 479 442 l 726 717 l 922 717 l 551 325 l 551 0 l 383 0 "},"Z":{"ha":947,"x_min":85,"x_max":854,"o":"m 85 0 l 85 78 l 586 589 l 135 589 l 135 717 l 854 717 l 854 646 l 346 135 l 854 135 l 854 0 l 85 0 "},"[":{"ha":460,"x_min":131,"x_max":438,"o":"m 438 -22 l 131 -22 l 131 739 l 438 739 l 438 640 l 264 640 l 264 81 l 438 81 l 438 -22 "},"\\":{"ha":386,"x_min":-33,"x_max":419,"o":"m 58 739 l 419 -22 l 331 -22 l -33 739 l 58 739 "},"]":{"ha":460,"x_min":22,"x_max":329,"o":"m 22 -22 l 22 81 l 196 81 l 196 640 l 22 640 l 22 739 l 329 739 l 329 -22 l 22 -22 "},"^":{"ha":1389,"x_min":285,"x_max":1103,"o":"m 757 989 l 1103 611 l 981 611 l 694 896 l 407 611 l 285 611 l 631 989 l 757 989 "},"_":{"ha":694,"x_min":0,"x_max":694,"o":"m 694 -231 l 694 -328 l 0 -328 l 0 -231 l 694 -231 "},"`":{"ha":694,"x_min":158,"x_max":447,"o":"m 447 664 l 358 664 l 158 899 l 308 899 l 447 664 "},"a":{"ha":897,"x_min":42,"x_max":882,"o":"m 319 236 l 589 236 l 451 481 l 319 236 m 42 0 l 390 588 l 528 588 l 882 0 l 721 0 l 647 129 l 258 129 l 185 0 l 42 0 "},"b":{"ha":913,"x_min":131,"x_max":801,"o":"m 593 256 l 272 256 l 272 106 l 593 106 q 646 116 629 106 q 663 158 663 126 l 663 203 q 646 245 663 235 q 593 256 629 256 m 593 492 l 272 492 l 272 353 l 593 353 q 641 360 625 353 q 657 394 657 368 l 657 450 q 642 484 657 476 q 593 492 626 492 m 131 0 l 131 588 l 658 588 q 763 562 729 588 q 797 474 797 536 l 797 403 q 772 337 797 363 q 697 303 746 311 q 774 265 747 294 q 801 190 801 235 l 801 115 q 619 0 801 0 l 131 0 "},"c":{"ha":894,"x_min":117,"x_max":790,"o":"m 646 479 l 260 479 l 260 113 l 646 113 l 646 238 l 790 208 l 790 139 q 783 71 790 97 q 757 28 775 44 q 709 6 739 13 q 636 0 679 0 l 269 0 q 196 6 225 0 q 149 28 167 13 q 124 72 131 44 q 117 139 117 99 l 117 449 q 124 517 117 490 q 149 559 132 543 q 196 581 167 575 q 269 588 225 588 l 636 588 q 709 581 679 588 q 757 560 739 575 q 783 517 775 544 q 790 449 790 490 l 790 392 l 646 371 l 646 479 "},"d":{"ha":964,"x_min":131,"x_max":879,"o":"m 131 0 l 131 588 l 526 588 q 790 510 701 588 q 879 296 879 433 q 490 0 879 0 l 131 0 m 275 110 l 460 110 q 579 118 528 110 q 665 149 631 126 q 715 208 699 171 q 732 303 732 246 q 681 438 732 394 q 528 482 631 482 l 275 482 l 275 110 "},"e":{"ha":844,"x_min":131,"x_max":768,"o":"m 131 0 l 131 588 l 761 588 l 761 483 l 275 483 l 275 356 l 558 356 l 558 254 l 275 254 l 275 110 l 768 110 l 768 0 l 131 0 "},"f":{"ha":764,"x_min":131,"x_max":754,"o":"m 131 0 l 131 588 l 754 588 l 754 482 l 275 482 l 275 329 l 533 329 l 533 219 l 275 219 l 275 0 l 131 0 "},"g":{"ha":961,"x_min":117,"x_max":847,"o":"m 707 479 l 260 479 l 260 113 l 707 113 l 707 238 l 474 238 l 474 342 l 847 342 l 847 139 q 840 71 847 97 q 815 28 832 44 q 767 6 797 13 q 694 0 738 0 l 269 0 q 196 6 225 0 q 149 28 167 13 q 124 71 132 44 q 117 139 117 97 l 117 449 q 124 517 117 490 q 150 560 132 544 q 197 581 168 575 q 269 588 226 588 l 694 588 q 813 561 778 588 q 847 456 847 535 l 847 440 l 707 417 l 707 479 "},"h":{"ha":997,"x_min":131,"x_max":865,"o":"m 131 0 l 131 588 l 275 588 l 275 364 l 722 364 l 722 588 l 865 588 l 865 0 l 722 0 l 722 247 l 275 247 l 275 0 l 131 0 "},"i":{"ha":404,"x_min":131,"x_max":274,"o":"m 131 0 l 131 588 l 274 588 l 274 0 l 131 0 "},"j":{"ha":778,"x_min":76,"x_max":646,"o":"m 231 0 q 157 6 186 0 q 110 28 128 13 q 84 71 92 44 q 76 139 76 97 l 76 261 l 221 288 l 221 110 l 501 110 l 501 588 l 646 588 l 646 139 q 638 71 646 97 q 613 28 631 44 q 565 6 594 13 q 492 0 535 0 l 231 0 "},"k":{"ha":861,"x_min":131,"x_max":871,"o":"m 131 0 l 131 588 l 275 588 l 275 350 l 618 588 l 825 588 l 419 315 l 871 0 l 644 0 l 275 265 l 275 0 l 131 0 "},"l":{"ha":767,"x_min":131,"x_max":736,"o":"m 131 0 l 131 588 l 275 588 l 275 110 l 736 110 l 736 0 l 131 0 "},"m":{"ha":1065,"x_min":131,"x_max":935,"o":"m 131 0 l 131 588 l 246 588 l 533 239 l 819 588 l 935 588 l 935 0 l 801 0 l 801 404 l 539 71 l 511 71 l 246 394 l 246 0 l 131 0 "},"n":{"ha":989,"x_min":131,"x_max":857,"o":"m 131 0 l 131 588 l 229 588 l 728 197 l 728 588 l 857 588 l 857 0 l 758 0 l 261 396 l 261 0 l 131 0 "},"o":{"ha":993,"x_min":117,"x_max":876,"o":"m 117 449 q 124 517 117 490 q 150 560 132 544 q 197 582 168 576 q 269 588 226 588 l 724 588 q 796 582 767 588 q 843 560 825 576 q 869 517 861 544 q 876 449 876 490 l 876 139 q 869 70 876 97 q 843 28 861 43 q 796 6 825 13 q 724 0 767 0 l 269 0 q 196 6 225 0 q 149 28 167 13 q 124 70 132 43 q 117 139 117 97 l 117 449 m 260 113 l 733 113 l 733 479 l 260 479 l 260 113 "},"p":{"ha":872,"x_min":131,"x_max":797,"o":"m 599 486 l 272 486 l 272 331 l 599 331 q 647 340 631 331 q 664 378 664 349 l 664 439 q 647 477 664 468 q 599 486 631 486 m 131 0 l 131 588 l 660 588 q 764 562 731 588 q 797 474 797 536 l 797 343 q 764 255 797 281 q 660 229 731 229 l 272 229 l 272 0 l 131 0 "},"q":{"ha":993,"x_min":117,"x_max":876,"o":"m 260 113 l 475 113 l 414 239 l 517 278 l 597 113 l 733 113 l 733 479 l 260 479 l 260 113 m 117 449 q 124 519 117 492 q 150 561 132 546 q 197 582 168 576 q 269 588 226 588 l 724 588 q 796 582 767 588 q 843 561 825 576 q 869 519 861 546 q 876 449 876 492 l 876 140 q 869 72 876 99 q 843 30 861 46 q 796 8 825 14 q 724 1 767 1 l 654 1 l 733 -150 l 590 -150 l 524 1 l 269 1 q 196 8 225 1 q 149 30 167 14 q 124 72 132 46 q 117 140 117 99 l 117 449 "},"r":{"ha":903,"x_min":131,"x_max":858,"o":"m 131 0 l 131 588 l 660 588 q 764 562 731 588 q 797 474 797 536 l 797 335 q 764 248 797 274 q 660 222 731 222 l 579 222 l 858 0 l 653 0 l 407 222 l 272 222 l 272 0 l 131 0 m 599 486 l 272 486 l 272 324 l 599 324 q 647 333 631 324 q 664 371 664 342 l 664 439 q 647 477 664 468 q 599 486 631 486 "},"s":{"ha":921,"x_min":115,"x_max":804,"o":"m 674 482 l 269 482 l 269 358 l 651 358 q 724 352 694 358 q 772 331 754 346 q 797 288 789 315 q 804 219 804 261 l 804 139 q 797 71 804 97 q 772 28 789 44 q 724 6 754 13 q 651 0 694 0 l 269 0 q 196 6 225 0 q 149 28 167 13 q 123 71 131 44 q 115 139 115 97 l 115 156 l 243 179 l 243 110 l 675 110 l 675 244 l 294 244 q 222 251 251 244 q 174 272 192 257 q 148 315 156 288 q 140 383 140 342 l 140 449 q 148 517 140 490 q 174 560 156 544 q 222 581 192 575 q 294 588 251 588 l 643 588 q 760 562 724 588 q 797 460 797 536 l 797 446 l 674 419 l 674 482 "},"t":{"ha":819,"x_min":54,"x_max":765,"o":"m 481 482 l 481 0 l 338 0 l 338 482 l 54 482 l 54 588 l 765 588 l 765 482 l 481 482 "},"u":{"ha":957,"x_min":131,"x_max":826,"o":"m 274 588 l 274 110 l 682 110 l 682 588 l 826 588 l 826 139 q 819 71 826 97 q 793 28 811 44 q 745 6 775 13 q 672 0 715 0 l 283 0 q 210 6 239 0 q 163 28 181 13 q 138 71 146 44 q 131 139 131 97 l 131 588 l 274 588 "},"v":{"ha":878,"x_min":50,"x_max":844,"o":"m 406 0 l 50 588 l 213 588 l 461 161 l 696 588 l 844 588 l 504 0 l 406 0 "},"w":{"ha":1096,"x_min":50,"x_max":1063,"o":"m 289 0 l 50 588 l 200 588 l 354 178 l 519 588 l 618 588 l 782 178 l 933 588 l 1063 588 l 826 0 l 729 0 l 560 415 l 388 0 l 289 0 "},"x":{"ha":886,"x_min":65,"x_max":868,"o":"m 71 0 l 361 301 l 65 588 l 257 588 l 454 397 l 640 588 l 806 588 l 538 318 l 868 0 l 672 0 l 447 219 l 240 0 l 71 0 "},"y":{"ha":824,"x_min":32,"x_max":815,"o":"m 353 0 l 353 264 l 32 588 l 225 588 l 435 368 l 647 588 l 815 588 l 496 267 l 496 0 l 353 0 "},"z":{"ha":856,"x_min":97,"x_max":760,"o":"m 97 0 l 97 64 l 528 482 l 140 482 l 140 588 l 760 588 l 760 529 l 321 108 l 760 108 l 760 0 l 97 0 "},"{":{"ha":694,"x_min":114,"x_max":588,"o":"m 588 900 l 560 900 q 490 892 517 900 q 448 867 463 885 q 428 819 433 849 q 422 744 422 789 l 422 581 q 417 496 422 532 q 397 433 411 460 q 355 388 382 406 q 286 360 328 371 q 356 331 329 349 q 397 287 382 314 q 417 224 411 260 q 422 139 422 188 l 422 -25 q 427 -99 422 -69 q 447 -147 432 -129 q 490 -173 463 -165 q 561 -181 517 -181 l 588 -181 l 588 -281 l 558 -281 q 452 -274 497 -281 q 374 -247 407 -268 q 317 -169 328 -219 q 306 -39 306 -118 l 306 128 q 269 269 306 226 q 143 311 233 311 q 128 310 136 311 q 114 310 121 310 l 114 411 q 130 410 122 411 q 144 410 138 410 q 269 451 233 410 q 306 592 306 493 l 306 758 q 317 888 306 838 q 374 967 328 939 q 454 994 408 988 q 563 1001 500 1001 l 588 1001 l 588 900 "},"|":{"ha":694,"x_min":297,"x_max":399,"o":"m 399 1061 l 399 -328 l 297 -328 l 297 1061 l 399 1061 "},"}":{"ha":694,"x_min":108,"x_max":582,"o":"m 390 758 l 390 592 q 399 508 390 542 q 426 451 407 474 q 476 419 444 429 q 551 410 507 410 q 566 410 558 410 q 582 411 574 411 l 582 310 q 567 310 575 310 q 553 311 560 311 q 426 269 461 311 q 390 128 390 226 l 390 -39 q 379 -169 390 -118 q 322 -247 368 -219 q 244 -274 289 -268 q 138 -281 199 -281 l 108 -281 l 108 -181 l 135 -181 q 206 -173 178 -181 q 248 -147 233 -165 q 268 -99 263 -129 q 274 -24 274 -68 l 274 139 q 279 224 274 188 q 299 287 285 260 q 341 331 314 314 q 410 360 368 349 q 341 388 368 371 q 299 433 314 406 q 279 496 285 460 q 274 581 274 532 l 274 744 q 268 819 274 789 q 248 867 263 849 q 206 892 233 885 q 135 900 178 900 l 108 900 l 108 1001 l 133 1001 q 242 994 196 1001 q 322 967 289 988 q 379 888 368 939 q 390 758 390 838 "},"~":{"ha":1157,"x_min":121,"x_max":1038,"o":"m 1038 417 q 904 344 968 368 q 774 321 840 321 q 674 336 721 321 q 578 368 626 351 q 482 399 529 385 q 382 413 435 413 q 258 385 319 413 q 121 306 196 358 l 121 411 q 383 508 264 508 q 485 496 438 508 q 581 467 533 483 q 679 433 632 449 q 775 417 726 417 q 903 444 840 417 q 1038 522 965 471 l 1038 417 "},"‚":{"ha":460,"x_min":117,"x_max":336,"o":"m 279 215 l 303 215 q 330 203 324 215 q 336 164 336 190 l 336 21 l 199 -185 l 117 -185 l 235 26 l 179 26 l 156 26 q 128 39 135 26 q 122 78 122 51 l 122 164 q 124 194 122 183 q 133 209 126 204 q 150 215 139 214 q 179 215 161 215 l 279 215 "},"ƒ":{"ha":1074,"x_min":131,"x_max":929,"o":"m 536 8 q 511 -78 526 -43 q 471 -136 496 -114 q 407 -168 446 -158 q 313 -178 368 -178 q 131 -39 131 -178 l 131 8 l 267 40 l 265 -14 l 265 -19 q 276 -57 265 -47 q 317 -67 288 -67 q 367 -46 350 -67 q 392 18 383 -25 l 478 457 l 349 457 l 349 538 l 494 538 l 522 681 q 550 772 533 736 q 594 829 567 808 q 662 858 621 850 q 763 865 703 865 q 928 729 926 865 l 929 682 l 792 663 l 794 707 l 794 713 q 747 760 794 760 q 693 740 710 760 q 668 675 676 719 l 640 538 l 790 538 l 790 457 l 624 457 l 536 8 "},"„":{"ha":804,"x_min":117,"x_max":681,"o":"m 279 215 l 303 215 q 330 203 324 215 q 336 164 336 190 l 336 21 l 199 -185 l 117 -185 l 235 26 l 179 26 l 156 26 q 128 39 135 26 q 122 78 122 51 l 122 164 q 124 194 122 183 q 133 209 126 204 q 150 215 139 214 q 179 215 161 215 l 279 215 m 622 215 l 647 215 q 674 203 668 215 q 681 164 681 190 l 681 21 l 543 -185 l 460 -185 l 578 26 l 524 26 l 500 26 q 472 39 479 26 q 465 78 465 51 l 465 164 q 468 194 465 183 q 477 209 471 204 q 494 215 483 214 q 524 215 506 215 l 622 215 "},"…":{"ha":1389,"x_min":124,"x_max":1265,"o":"m 281 215 l 306 215 q 333 203 326 215 q 339 164 339 190 l 339 51 q 336 22 339 32 q 327 6 333 11 q 310 1 321 1 q 281 0 299 0 l 182 0 l 157 0 q 130 13 136 0 q 124 51 124 25 l 124 164 q 126 194 124 183 q 135 209 129 204 q 153 215 142 214 q 182 215 164 215 l 281 215 m 743 215 l 768 215 q 795 203 789 215 q 801 164 801 190 l 801 51 q 799 22 801 32 q 790 6 796 11 q 772 1 783 1 q 743 0 761 0 l 644 0 l 619 0 q 592 13 599 0 q 586 51 586 25 l 586 164 q 589 194 586 183 q 598 209 592 204 q 615 215 604 214 q 644 215 626 215 l 743 215 m 1207 215 l 1232 215 q 1259 203 1253 215 q 1265 164 1265 190 l 1265 51 q 1263 22 1265 32 q 1253 6 1260 11 q 1236 1 1247 1 q 1207 0 1225 0 l 1108 0 l 1083 0 q 1056 13 1063 0 q 1050 51 1050 25 l 1050 164 q 1053 194 1050 183 q 1062 209 1056 204 q 1079 215 1068 214 q 1108 215 1090 215 l 1207 215 "},"†":{"ha":694,"x_min":99,"x_max":594,"o":"m 328 -147 q 308 72 322 -29 q 272 257 294 174 q 303 347 290 301 q 328 440 317 392 l 99 389 l 99 536 l 328 488 l 272 717 l 422 717 l 365 488 l 594 536 l 594 389 l 365 440 q 390 347 376 392 q 422 257 404 301 q 385 72 400 174 q 365 -147 371 -29 l 328 -147 "},"‡":{"ha":694,"x_min":99,"x_max":594,"o":"m 422 289 l 365 138 l 594 190 l 594 43 l 365 90 l 422 -139 l 272 -139 l 328 90 l 99 43 l 99 190 l 328 138 l 272 289 l 328 440 l 99 389 l 99 536 l 328 488 l 272 717 l 422 717 l 365 488 l 594 536 l 594 389 l 365 440 l 422 289 "},"ˆ":{"ha":694,"x_min":146,"x_max":549,"o":"m 146 663 l 274 899 l 421 899 l 549 663 l 460 663 l 347 806 l 233 663 l 146 663 "},"‰":{"ha":1611,"x_min":61,"x_max":1549,"o":"m 61 528 q 78 611 61 572 q 124 678 94 650 q 192 723 153 707 q 275 739 231 739 q 358 722 319 739 q 426 677 397 706 q 471 610 454 649 q 488 528 488 572 q 470 444 488 483 q 424 376 453 406 q 356 330 394 347 q 275 313 318 313 q 193 330 232 313 q 125 376 154 347 q 78 444 96 406 q 61 528 61 483 m 156 525 q 165 480 156 501 q 190 442 174 458 q 227 417 206 426 q 274 407 249 407 q 358 442 324 407 q 393 525 393 476 q 383 572 393 550 q 358 609 374 593 q 320 635 342 625 q 274 644 299 644 q 190 609 225 644 q 156 525 156 574 m 901 739 l 297 -22 l 207 -22 l 811 739 l 901 739 m 621 192 q 638 275 621 236 q 683 342 654 314 q 750 388 711 371 q 833 404 789 404 q 917 388 878 404 q 985 342 956 371 q 1031 275 1014 314 q 1047 192 1047 236 q 1030 108 1047 147 q 983 40 1013 69 q 915 -6 954 11 q 833 -22 876 -22 q 751 -6 790 -22 q 683 40 713 11 q 638 108 654 69 q 621 192 621 147 m 715 190 q 724 145 715 167 q 749 108 733 124 q 787 82 765 92 q 833 72 808 72 q 918 107 883 72 q 953 190 953 142 q 943 237 953 215 q 917 274 933 258 q 880 300 901 290 q 833 310 858 310 q 750 274 785 310 q 715 190 715 239 m 1122 192 q 1139 275 1122 236 q 1185 342 1156 314 q 1253 388 1214 371 q 1336 404 1292 404 q 1419 388 1381 404 q 1487 342 1458 371 q 1532 275 1515 314 q 1549 192 1549 236 q 1531 108 1549 147 q 1485 40 1514 69 q 1417 -6 1456 11 q 1336 -22 1379 -22 q 1254 -6 1293 -22 q 1186 40 1215 11 q 1140 108 1157 69 q 1122 192 1122 147 m 1217 190 q 1226 145 1217 167 q 1251 108 1235 124 q 1288 82 1267 92 q 1335 72 1310 72 q 1419 107 1385 72 q 1454 190 1454 142 q 1444 237 1454 215 q 1419 274 1435 258 q 1381 300 1403 290 q 1335 310 1360 310 q 1251 274 1286 310 q 1217 190 1217 239 "},"Š":{"ha":1124,"x_min":160,"x_max":961,"o":"m 804 592 l 335 592 l 335 438 l 782 438 q 867 430 832 438 q 922 403 901 422 q 952 351 943 385 q 961 268 961 318 l 961 169 q 952 86 961 119 q 922 34 943 53 q 867 8 901 15 q 782 0 832 0 l 339 0 q 254 8 289 0 q 199 34 219 15 q 169 86 178 53 q 160 169 160 119 l 160 189 l 307 219 l 307 135 l 814 135 l 814 299 l 367 299 q 283 306 317 299 q 228 333 249 314 q 198 385 207 351 q 189 468 189 418 l 189 547 q 198 631 189 597 q 228 683 207 664 q 283 709 249 701 q 367 717 317 717 l 774 717 q 855 710 821 717 q 910 685 889 703 q 942 636 932 667 q 951 560 951 606 l 951 544 l 804 510 l 804 592 m 361 1028 l 449 1028 l 563 886 l 675 1028 l 764 1028 l 636 792 l 489 792 l 361 1028 "},"‹":{"ha":460,"x_min":86,"x_max":374,"o":"m 374 89 l 250 89 l 86 294 l 250 499 l 374 499 l 215 294 l 374 89 "},"Œ":{"ha":1535,"x_min":168,"x_max":1411,"o":"m 335 135 l 779 135 l 779 594 l 335 594 l 335 135 m 168 547 q 177 631 168 597 q 207 683 186 664 q 262 709 228 701 q 346 717 296 717 l 1404 717 l 1404 594 l 942 594 l 942 435 l 1272 435 l 1272 313 l 942 313 l 942 135 l 1411 135 l 1411 0 l 346 0 q 262 8 296 0 q 207 34 228 15 q 177 86 186 53 q 168 169 168 119 l 168 547 "},"‘":{"ha":460,"x_min":124,"x_max":343,"o":"m 181 317 l 157 317 q 130 329 136 317 q 124 368 124 342 l 124 511 l 261 717 l 343 717 l 225 506 l 281 506 l 304 506 q 331 493 325 506 q 338 454 338 481 l 338 368 q 335 338 338 349 q 327 323 333 328 q 310 317 321 318 q 281 317 299 317 l 181 317 "},"’":{"ha":460,"x_min":117,"x_max":336,"o":"m 279 717 l 303 717 q 330 704 324 717 q 336 665 336 692 l 336 522 l 199 317 l 117 317 l 235 528 l 179 528 l 156 528 q 128 540 135 528 q 122 579 122 553 l 122 665 q 124 695 122 685 q 133 710 126 706 q 150 716 139 715 q 179 717 161 717 l 279 717 "},"“":{"ha":804,"x_min":124,"x_max":688,"o":"m 181 317 l 157 317 q 130 329 136 317 q 124 368 124 342 l 124 511 l 261 717 l 343 717 l 225 506 l 281 506 l 304 506 q 331 493 325 506 q 338 454 338 481 l 338 368 q 335 338 338 349 q 327 323 333 328 q 310 317 321 318 q 281 317 299 317 l 181 317 m 525 317 l 501 317 q 474 329 481 317 q 467 368 467 342 l 467 511 l 604 717 l 688 717 l 569 506 l 624 506 l 649 506 q 676 493 669 506 q 682 454 682 481 l 682 368 q 679 338 682 349 q 670 323 676 328 q 653 317 664 318 q 624 317 642 317 l 525 317 "},"”":{"ha":804,"x_min":117,"x_max":681,"o":"m 279 717 l 303 717 q 330 704 324 717 q 336 665 336 692 l 336 522 l 199 317 l 117 317 l 235 528 l 179 528 l 156 528 q 128 540 135 528 q 122 579 122 553 l 122 665 q 124 695 122 685 q 133 710 126 706 q 150 716 139 715 q 179 717 161 717 l 279 717 m 622 717 l 647 717 q 674 704 668 717 q 681 665 681 692 l 681 522 l 543 317 l 460 317 l 578 528 l 524 528 l 500 528 q 472 540 479 528 q 465 579 465 553 l 465 665 q 468 695 465 685 q 477 710 471 706 q 494 716 483 715 q 524 717 506 717 l 622 717 "},"•":{"ha":819,"x_min":208,"x_max":610,"o":"m 208 517 q 224 594 208 558 q 267 658 240 631 q 331 701 294 685 q 410 717 368 717 q 488 701 451 717 q 551 658 524 685 q 594 594 578 631 q 610 517 610 558 q 594 439 610 475 q 551 375 578 403 q 487 331 524 347 q 408 315 450 315 q 330 331 367 315 q 266 374 293 347 q 224 438 239 401 q 208 517 208 475 "},"–":{"ha":694,"x_min":0,"x_max":694,"o":"m 0 321 l 0 418 l 694 418 l 694 321 l 0 321 "},"—":{"ha":1389,"x_min":0,"x_max":1389,"o":"m 0 418 l 1389 418 l 1389 321 l 0 321 l 0 418 "},"˜":{"ha":694,"x_min":143,"x_max":551,"o":"m 551 856 q 504 740 536 776 q 417 703 472 703 q 369 710 394 703 l 313 726 q 269 733 288 733 q 211 688 225 733 l 143 688 q 274 836 169 836 q 331 826 300 836 l 390 810 q 425 806 407 806 q 461 818 446 806 q 483 856 476 831 l 551 856 "},"™":{"ha":1157,"x_min":164,"x_max":953,"o":"m 471 989 l 471 935 l 354 935 l 354 624 l 281 624 l 281 935 l 164 935 l 164 989 l 471 989 m 653 989 l 756 728 l 851 989 l 953 989 l 953 624 l 886 624 l 886 925 l 774 624 l 736 624 l 618 925 l 618 624 l 551 624 l 551 989 l 653 989 "},"š":{"ha":921,"x_min":115,"x_max":804,"o":"m 674 482 l 269 482 l 269 358 l 651 358 q 724 352 694 358 q 772 331 754 346 q 797 288 789 315 q 804 219 804 261 l 804 139 q 797 71 804 97 q 772 28 789 44 q 724 6 754 13 q 651 0 694 0 l 269 0 q 196 6 225 0 q 149 28 167 13 q 123 71 131 44 q 115 139 115 97 l 115 156 l 243 179 l 243 110 l 675 110 l 675 244 l 294 244 q 222 251 251 244 q 174 272 192 257 q 148 315 156 288 q 140 383 140 342 l 140 449 q 148 517 140 490 q 174 560 156 544 q 222 581 192 575 q 294 588 251 588 l 643 588 q 760 562 724 588 q 797 460 797 536 l 797 446 l 674 419 l 674 482 m 260 899 l 347 899 l 461 757 l 574 899 l 663 899 l 535 663 l 388 663 l 260 899 "},"›":{"ha":460,"x_min":86,"x_max":374,"o":"m 86 499 l 210 499 l 374 294 l 210 89 l 86 89 l 244 294 l 86 499 "},"œ":{"ha":1260,"x_min":117,"x_max":1186,"o":"m 117 449 q 124 517 117 490 q 149 560 132 544 q 196 581 167 575 q 269 588 225 588 l 1181 588 l 1181 483 l 782 483 l 782 356 l 1067 356 l 1067 254 l 782 254 l 782 111 l 1186 111 l 1186 0 l 269 0 q 196 6 225 0 q 149 28 167 13 q 124 71 131 44 q 117 139 117 97 l 117 449 m 260 113 l 643 113 l 643 479 l 260 479 l 260 113 "},"Ÿ":{"ha":933,"x_min":11,"x_max":922,"o":"m 383 0 l 383 321 l 11 717 l 233 717 l 479 442 l 726 717 l 922 717 l 551 325 l 551 0 l 383 0 m 282 825 l 282 981 l 421 981 l 421 825 l 282 825 m 513 825 l 513 981 l 651 981 l 651 825 l 513 825 "},"¡":{"ha":533,"x_min":157,"x_max":372,"o":"m 319 425 l 372 0 l 157 0 l 210 425 l 319 425 m 215 519 l 192 519 q 163 531 169 519 q 157 567 157 542 l 157 669 q 169 710 157 704 q 215 717 181 717 l 314 717 l 338 717 q 366 706 360 717 q 372 669 372 694 l 372 567 q 369 539 372 549 q 360 525 367 529 q 342 520 354 521 q 314 519 331 519 l 215 519 "},"¢":{"ha":1074,"x_min":279,"x_max":794,"o":"m 372 -140 l 421 0 l 385 0 q 301 27 322 0 q 279 113 279 54 l 279 371 q 285 424 279 403 q 306 457 292 444 q 347 475 321 469 q 411 481 372 481 l 586 481 l 625 594 l 700 594 l 661 481 q 727 477 701 481 q 768 463 753 474 q 789 431 783 451 q 794 378 794 411 l 794 315 l 672 296 l 672 371 l 624 371 l 533 113 l 672 113 l 672 207 l 794 178 l 794 88 q 768 18 794 36 q 682 0 742 0 l 496 0 l 447 -140 l 372 -140 m 460 113 l 549 371 l 411 371 l 411 113 l 460 113 "},"£":{"ha":1074,"x_min":144,"x_max":996,"o":"m 146 -17 l 146 126 q 266 167 231 133 q 301 276 301 201 q 301 291 301 282 q 299 315 300 300 l 144 315 l 144 425 l 290 425 q 286 473 288 450 q 285 517 285 496 q 337 670 285 624 q 507 717 389 717 l 750 717 q 893 681 846 717 q 940 578 940 644 l 940 513 l 800 489 l 800 531 q 776 588 800 575 q 701 601 751 601 l 543 601 q 484 597 507 601 q 448 580 461 592 q 429 547 435 568 q 424 492 424 525 q 429 425 424 457 l 632 425 l 632 315 l 435 315 q 428 240 433 275 q 411 172 422 204 q 584 135 503 147 q 733 124 665 124 q 833 140 807 124 q 860 214 860 157 l 860 242 l 996 217 l 996 165 q 765 -11 996 -11 q 583 6 686 -11 q 351 61 481 24 q 260 2 306 21 q 158 -17 215 -17 l 146 -17 "},"¤":{"ha":842,"x_min":54,"x_max":789,"o":"m 249 826 q 421 885 325 885 q 594 826 517 885 l 733 965 l 789 911 l 650 771 q 706 600 706 697 q 692 510 706 553 q 650 429 679 468 l 789 290 l 733 235 l 594 374 q 516 331 558 346 q 422 315 474 315 q 249 374 325 315 l 110 235 l 54 290 l 194 429 q 154 501 171 458 q 138 600 138 544 q 194 771 138 694 l 54 911 l 110 965 l 249 826 m 628 601 q 612 681 628 643 q 568 747 596 718 q 503 791 540 775 q 422 807 465 807 q 342 791 379 807 q 276 747 304 775 q 233 681 249 718 q 217 601 217 643 q 233 521 217 558 q 276 455 249 483 q 342 410 304 426 q 422 394 379 394 q 503 410 465 394 q 568 455 540 426 q 612 521 596 483 q 628 601 628 558 "},"¥":{"ha":1074,"x_min":88,"x_max":986,"o":"m 792 717 l 986 717 l 799 517 l 950 517 l 950 426 l 715 426 l 615 319 l 950 319 l 950 229 l 615 229 l 615 0 l 461 0 l 461 229 l 125 229 l 125 319 l 461 319 l 361 426 l 125 426 l 125 517 l 276 517 l 88 717 l 307 717 l 550 435 l 792 717 "},"¦":{"ha":694,"x_min":297,"x_max":399,"o":"m 399 971 l 399 457 l 297 457 l 297 971 l 399 971 m 399 276 l 399 -237 l 297 -237 l 297 276 l 399 276 "},"§":{"ha":694,"x_min":85,"x_max":614,"o":"m 183 365 q 265 275 183 319 q 372 230 322 243 q 447 217 421 217 q 498 231 479 217 q 517 269 517 246 q 419 365 517 314 q 317 407 364 394 q 246 419 269 419 q 199 403 215 419 q 183 365 183 388 m 106 -29 l 186 46 q 349 -31 264 -31 q 413 -12 389 -31 q 438 32 438 6 q 428 61 438 49 q 401 85 419 74 q 358 106 383 96 q 300 131 333 117 q 139 217 193 174 q 85 329 85 260 q 121 422 85 385 q 224 469 157 458 q 146 593 146 518 q 198 699 146 657 q 340 742 250 742 q 460 721 403 742 q 563 660 517 700 l 482 589 q 344 656 408 656 q 283 639 304 656 q 261 597 261 622 q 292 548 261 565 q 382 507 324 531 q 479 466 436 486 q 552 423 522 446 q 598 373 582 400 q 614 308 614 346 q 576 218 614 256 q 469 167 539 181 q 533 111 510 147 q 556 33 556 75 q 540 -28 556 0 q 498 -78 525 -57 q 433 -112 471 -100 q 350 -125 396 -125 q 219 -99 283 -125 q 106 -29 154 -74 "},"¨":{"ha":694,"x_min":163,"x_max":532,"o":"m 163 696 l 163 851 l 301 851 l 301 696 l 163 696 m 393 696 l 393 851 l 532 851 l 532 696 l 393 696 "},"©":{"ha":1157,"x_min":79,"x_max":1079,"o":"m 578 993 q 771 956 681 993 q 933 847 861 919 q 1042 685 1004 776 q 1079 493 1079 594 q 1042 301 1079 390 q 935 143 1006 213 q 769 32 860 71 q 578 -7 678 -7 q 388 31 478 -7 q 226 142 299 69 q 117 303 154 214 q 79 493 79 393 q 117 683 79 593 q 228 849 154 774 q 388 956 299 919 q 578 993 476 993 m 1013 493 q 981 660 1013 582 q 888 800 949 739 q 579 928 760 928 q 413 896 490 928 q 275 803 336 864 q 178 659 211 739 q 144 493 144 579 q 178 328 144 407 q 274 188 211 250 q 414 92 336 125 q 579 60 492 60 q 744 93 665 60 q 888 189 822 126 q 981 326 949 249 q 1013 493 1013 403 m 714 615 q 669 696 706 668 q 575 724 633 724 q 464 665 506 724 q 422 493 422 606 q 465 326 422 385 q 582 268 507 268 q 674 299 638 268 q 721 388 711 331 l 819 388 q 747 244 813 299 q 578 189 681 189 q 385 269 456 189 q 314 497 314 350 q 333 622 314 565 q 388 717 353 678 q 473 777 424 756 q 582 799 522 799 q 672 785 631 799 q 743 748 713 772 q 792 690 774 724 q 814 615 810 656 l 714 615 "},"ª":{"ha":592,"x_min":28,"x_max":582,"o":"m 211 428 l 389 428 l 299 575 l 211 428 m 28 286 l 257 639 l 349 639 l 582 286 l 476 286 l 428 364 l 171 364 l 122 286 l 28 286 "},"«":{"ha":781,"x_min":86,"x_max":694,"o":"m 374 89 l 250 89 l 86 294 l 250 499 l 374 499 l 215 294 l 374 89 m 694 89 l 571 89 l 407 294 l 571 499 l 694 499 l 536 294 l 694 89 "},"¬":{"ha":1157,"x_min":172,"x_max":985,"o":"m 985 583 l 985 243 l 892 243 l 892 489 l 172 489 l 172 583 l 985 583 "},"­":{"ha":1157,"x_min":172,"x_max":985,"o":"m 985 463 l 985 367 l 172 367 l 172 463 l 985 463 "},"®":{"ha":1157,"x_min":79,"x_max":1079,"o":"m 578 993 q 772 956 681 993 q 935 844 863 918 q 1042 683 1004 774 q 1079 493 1079 593 q 1042 300 1079 389 q 933 142 1004 211 q 767 31 858 69 q 578 -7 676 -7 q 388 31 478 -7 q 225 143 297 69 q 117 304 154 215 q 79 493 79 393 q 118 685 79 593 q 231 851 157 776 q 388 958 300 922 q 578 993 476 993 m 1013 489 q 981 659 1013 581 q 889 799 950 738 q 748 895 826 863 q 579 928 669 928 q 414 897 492 928 q 276 804 336 865 q 178 659 213 739 q 144 493 144 579 q 177 329 144 407 q 272 189 210 251 q 413 93 335 126 q 575 60 492 60 q 742 92 664 60 q 886 188 821 125 q 981 324 949 247 q 1013 489 1013 401 m 592 786 q 828 631 828 786 q 794 530 828 569 q 699 478 761 490 l 825 219 l 706 219 l 590 461 l 485 461 l 485 219 l 378 219 l 378 786 l 592 786 m 572 717 l 485 717 l 485 529 l 575 529 q 683 549 649 529 q 718 619 718 569 q 683 694 718 672 q 572 717 647 717 "},"¯":{"ha":694,"x_min":160,"x_max":535,"o":"m 160 724 l 160 824 l 535 824 l 535 724 l 160 724 "},"°":{"ha":457,"x_min":33,"x_max":424,"o":"m 229 988 q 305 972 269 988 q 367 931 340 957 q 408 868 393 904 q 424 792 424 832 q 408 717 424 751 q 367 655 393 682 q 306 613 342 628 q 228 597 269 597 q 151 613 186 597 q 90 654 115 628 q 49 716 64 681 q 33 792 33 751 q 49 869 33 833 q 91 931 64 904 q 153 972 118 957 q 229 988 189 988 m 360 793 q 322 885 360 847 q 229 924 285 924 q 178 914 201 924 q 136 886 154 904 q 108 844 118 868 q 97 793 97 821 q 135 699 97 738 q 229 660 174 660 q 281 670 257 660 q 323 699 306 681 q 350 742 340 718 q 360 793 360 765 "},"±":{"ha":1157,"x_min":172,"x_max":985,"o":"m 626 808 l 626 578 l 985 578 l 985 483 l 626 483 l 626 253 l 531 253 l 531 483 l 172 483 l 172 578 l 531 578 l 531 808 l 626 808 m 985 115 l 985 19 l 172 19 l 172 115 l 985 115 "},"²":{"ha":708,"x_min":104,"x_max":611,"o":"m 128 632 q 151 700 128 683 q 236 717 175 717 l 479 717 q 564 700 540 717 q 588 632 588 683 l 588 604 q 574 551 588 567 q 526 517 560 535 l 249 364 l 524 364 l 524 426 l 611 404 l 611 371 q 588 302 611 318 q 503 286 564 286 l 104 286 l 104 325 q 113 364 104 347 q 164 404 122 381 l 492 588 l 492 643 l 222 643 l 222 554 l 128 576 l 128 632 "},"³":{"ha":708,"x_min":101,"x_max":599,"o":"m 208 286 q 124 302 147 286 q 101 371 101 318 l 101 406 l 199 424 l 199 364 l 453 364 q 490 371 481 364 q 499 401 499 378 l 499 433 q 490 465 499 457 q 453 472 481 472 l 293 472 l 293 543 l 436 543 q 472 551 464 543 q 481 582 481 558 l 481 604 q 472 635 481 628 q 436 643 464 643 l 201 643 l 201 589 l 108 606 l 108 632 q 132 700 108 683 q 217 717 156 717 l 472 717 q 557 700 533 717 q 581 632 581 683 l 581 593 q 560 536 581 554 q 489 511 540 518 q 599 424 599 501 l 599 379 q 576 308 599 329 q 483 286 553 286 l 208 286 "},"´":{"ha":694,"x_min":247,"x_max":536,"o":"m 247 664 l 386 899 l 536 899 l 336 664 l 247 664 "},"µ":{"ha":781,"x_min":-76,"x_max":724,"o":"m 261 726 l 174 319 q 164 229 164 276 q 199 125 164 161 q 300 89 235 89 q 444 156 393 89 q 525 363 494 222 l 603 726 l 724 726 l 618 231 q 607 178 611 200 q 603 140 603 156 q 614 105 603 115 q 651 94 625 94 q 661 94 657 94 q 674 96 667 94 l 653 -1 q 615 -7 633 -6 q 579 -8 597 -8 q 513 12 535 -8 q 478 79 490 32 q 294 -10 418 -10 q 198 9 239 -10 q 121 69 157 28 l 46 -290 l -76 -290 l 139 726 l 261 726 "},"¶":{"ha":694,"x_min":44,"x_max":650,"o":"m 650 944 l 568 944 l 568 0 l 493 0 l 493 944 l 372 944 l 372 0 l 297 0 l 297 531 q 112 601 179 536 q 44 767 44 665 q 63 862 44 818 q 117 937 82 906 q 201 985 151 968 q 311 1003 250 1003 l 650 1003 l 650 944 "},"·":{"ha":460,"x_min":117,"x_max":343,"o":"m 117 358 q 149 439 117 407 q 229 471 181 471 q 310 439 278 471 q 343 358 343 407 q 334 315 343 335 q 309 278 325 294 q 272 253 293 263 q 229 244 251 244 q 150 278 183 244 q 117 358 117 313 "},"¸":{"ha":694,"x_min":194,"x_max":549,"o":"m 194 -294 l 194 -214 q 368 -243 307 -243 q 442 -192 442 -243 q 417 -150 442 -162 q 344 -137 393 -137 q 331 -138 338 -137 q 317 -139 324 -139 l 317 0 l 378 0 l 378 -64 l 389 -64 q 549 -194 549 -64 q 506 -290 549 -256 q 379 -324 463 -324 q 300 -317 347 -324 q 194 -294 253 -310 "},"¹":{"ha":708,"x_min":224,"x_max":424,"o":"m 324 286 l 324 635 l 224 635 l 224 692 l 424 719 l 424 286 l 324 286 "},"º":{"ha":656,"x_min":76,"x_max":578,"o":"m 76 556 q 98 622 76 606 q 178 639 119 639 l 478 639 q 556 622 535 639 q 578 556 578 606 l 578 369 q 556 303 578 319 q 478 286 535 286 l 178 286 q 98 303 119 286 q 76 369 76 319 l 76 556 m 171 354 l 483 354 l 483 574 l 171 574 l 171 354 "},"»":{"ha":781,"x_min":86,"x_max":694,"o":"m 86 499 l 210 499 l 374 294 l 210 89 l 86 89 l 244 294 l 86 499 m 408 499 l 531 499 l 694 294 l 531 89 l 408 89 l 565 294 l 408 499 "},"¼":{"ha":1585,"x_min":214,"x_max":1526,"o":"m 310 315 l 310 640 l 214 640 l 214 694 l 406 719 l 406 315 l 310 315 m 1139 739 l 535 -22 l 444 -22 l 1050 739 l 1139 739 m 1321 156 l 1321 335 l 1075 156 l 1321 156 m 1321 -4 l 1321 89 l 979 89 l 979 156 l 1318 406 l 1417 406 l 1417 156 l 1526 156 l 1526 89 l 1417 89 l 1417 -4 l 1321 -4 "},"½":{"ha":1585,"x_min":214,"x_max":1492,"o":"m 310 315 l 310 640 l 214 640 l 214 694 l 406 719 l 406 315 l 310 315 m 1139 739 l 535 -22 l 444 -22 l 1050 739 l 1139 739 m 1031 322 q 1053 386 1031 371 q 1135 401 1076 401 l 1365 401 q 1447 386 1424 401 q 1469 322 1469 371 l 1469 297 q 1456 247 1469 261 q 1411 215 1443 233 l 1146 72 l 1408 72 l 1408 132 l 1492 111 l 1492 79 q 1469 15 1492 31 q 1388 0 1446 0 l 1008 0 l 1008 36 q 1017 72 1008 57 q 1065 110 1025 88 l 1378 281 l 1378 333 l 1119 333 l 1119 250 l 1031 271 l 1031 322 "},"¾":{"ha":1585,"x_min":96,"x_max":1526,"o":"m 200 315 q 119 331 142 315 q 96 394 96 346 l 96 426 l 189 443 l 189 388 l 432 388 q 467 394 458 388 q 476 424 476 401 l 476 453 q 467 482 476 475 q 432 489 458 489 l 281 489 l 281 554 l 415 554 q 450 562 442 554 q 458 592 458 569 l 458 611 q 450 641 458 633 q 415 649 442 649 l 193 649 l 193 599 l 103 613 l 103 638 q 126 701 103 686 q 207 717 149 717 l 450 717 q 531 701 508 717 q 554 638 554 686 l 554 601 q 535 549 554 565 q 467 525 515 532 q 571 443 571 517 l 571 401 q 549 335 571 354 q 463 315 528 315 l 200 315 m 1139 739 l 535 -22 l 444 -22 l 1050 739 l 1139 739 m 1321 156 l 1321 335 l 1075 156 l 1321 156 m 1321 -4 l 1321 89 l 979 89 l 979 156 l 1318 406 l 1417 406 l 1417 156 l 1526 156 l 1526 89 l 1417 89 l 1417 -4 l 1321 -4 "},"¿":{"ha":919,"x_min":147,"x_max":751,"o":"m 414 519 l 390 519 q 362 531 368 519 q 356 567 356 542 l 356 669 q 367 710 356 704 q 414 717 379 717 l 513 717 l 536 717 q 565 706 558 717 q 571 669 571 694 l 571 567 q 568 539 571 549 q 559 525 565 529 q 541 520 553 521 q 513 519 529 519 l 414 519 m 532 426 l 532 326 l 292 182 l 292 119 l 613 119 l 613 208 l 751 186 l 751 147 q 601 0 751 0 l 318 0 q 147 135 147 0 l 147 247 l 390 389 l 390 426 l 532 426 "},"À":{"ha":1071,"x_min":46,"x_max":1024,"o":"m 46 0 l 451 717 l 613 717 l 1024 0 l 836 0 l 750 157 l 296 157 l 213 0 l 46 0 m 367 286 l 681 286 l 526 578 l 367 286 m 636 793 l 547 793 l 347 1028 l 497 1028 l 636 793 "},"Á":{"ha":1071,"x_min":46,"x_max":1024,"o":"m 46 0 l 451 717 l 613 717 l 1024 0 l 836 0 l 750 157 l 296 157 l 213 0 l 46 0 m 367 286 l 681 286 l 526 578 l 367 286 m 436 793 l 575 1028 l 725 1028 l 525 793 l 436 793 "},"Â":{"ha":1071,"x_min":46,"x_max":1024,"o":"m 46 0 l 451 717 l 613 717 l 1024 0 l 836 0 l 750 157 l 296 157 l 213 0 l 46 0 m 367 286 l 681 286 l 526 578 l 367 286 m 335 792 l 463 1028 l 610 1028 l 738 792 l 649 792 l 536 935 l 422 792 l 335 792 "},"Ã":{"ha":1071,"x_min":46,"x_max":1024,"o":"m 46 0 l 451 717 l 613 717 l 1024 0 l 836 0 l 750 157 l 296 157 l 213 0 l 46 0 m 367 286 l 681 286 l 526 578 l 367 286 m 740 985 q 693 869 725 906 q 606 832 661 832 q 558 839 583 832 l 501 856 q 458 863 476 863 q 400 817 414 863 l 332 817 q 463 965 358 965 q 519 956 489 965 l 579 939 q 614 935 596 935 q 650 947 635 935 q 672 985 665 960 l 740 985 "},"Ä":{"ha":1071,"x_min":46,"x_max":1024,"o":"m 46 0 l 451 717 l 613 717 l 1024 0 l 836 0 l 750 157 l 296 157 l 213 0 l 46 0 m 367 286 l 681 286 l 526 578 l 367 286 m 351 825 l 351 981 l 490 981 l 490 825 l 351 825 m 582 825 l 582 981 l 721 981 l 721 825 l 582 825 "},"Å":{"ha":1071,"x_min":46,"x_max":1024,"o":"m 46 0 l 451 717 l 613 717 l 1024 0 l 836 0 l 750 157 l 296 157 l 213 0 l 46 0 m 367 286 l 681 286 l 526 578 l 367 286 m 357 938 q 370 1006 357 974 q 407 1061 383 1038 q 463 1098 431 1085 q 531 1111 494 1111 q 599 1098 567 1111 q 655 1061 631 1085 q 693 1006 679 1038 q 707 938 707 974 q 693 868 707 900 q 655 813 679 836 q 599 776 631 789 q 531 763 567 763 q 463 776 494 763 q 407 813 431 789 q 370 868 383 836 q 357 938 357 900 m 446 936 q 471 875 446 900 q 532 850 496 850 q 593 875 568 850 q 618 936 618 900 q 593 998 618 972 q 532 1024 568 1024 q 471 998 496 1024 q 446 936 446 972 "},"Æ":{"ha":1485,"x_min":24,"x_max":1361,"o":"m 1361 135 l 1361 0 l 728 0 l 728 178 l 360 178 l 214 0 l 24 0 l 622 717 l 1354 717 l 1354 594 l 890 594 l 890 435 l 1222 435 l 1222 313 l 890 313 l 890 135 l 1361 135 m 728 308 l 728 608 l 703 608 l 456 308 l 728 308 "},"Ç":{"ha":1113,"x_min":168,"x_max":951,"o":"m 785 589 l 335 589 l 335 135 l 785 135 l 785 289 l 951 254 l 951 169 q 942 86 951 119 q 913 34 933 53 q 858 8 892 15 q 774 0 824 0 l 346 0 q 262 8 296 0 q 207 34 228 15 q 177 86 186 53 q 168 169 168 119 l 168 547 q 177 631 168 597 q 207 683 186 664 q 262 709 228 701 q 346 717 296 717 l 774 717 q 858 709 824 717 q 913 683 892 701 q 942 631 933 664 q 951 547 951 597 l 951 479 l 785 453 l 785 589 m 404 -294 l 404 -214 q 578 -243 517 -243 q 651 -192 651 -243 q 627 -150 651 -162 q 554 -137 603 -137 q 540 -138 547 -137 q 526 -139 533 -139 l 526 0 l 588 0 l 588 -64 l 599 -64 q 758 -194 758 -64 q 715 -290 758 -256 q 589 -324 672 -324 q 510 -317 557 -324 q 404 -294 463 -310 "},"È":{"ha":1049,"x_min":183,"x_max":924,"o":"m 183 0 l 183 717 l 917 717 l 917 594 l 350 594 l 350 435 l 681 435 l 681 313 l 350 313 l 350 135 l 924 135 l 924 0 l 183 0 m 654 793 l 565 793 l 365 1028 l 515 1028 l 654 793 "},"É":{"ha":1049,"x_min":183,"x_max":924,"o":"m 183 0 l 183 717 l 917 717 l 917 594 l 350 594 l 350 435 l 681 435 l 681 313 l 350 313 l 350 135 l 924 135 l 924 0 l 183 0 m 454 793 l 593 1028 l 743 1028 l 543 793 l 454 793 "},"Ê":{"ha":1049,"x_min":183,"x_max":924,"o":"m 183 0 l 183 717 l 917 717 l 917 594 l 350 594 l 350 435 l 681 435 l 681 313 l 350 313 l 350 135 l 924 135 l 924 0 l 183 0 m 353 792 l 481 1028 l 628 1028 l 756 792 l 667 792 l 554 935 l 440 792 l 353 792 "},"Ë":{"ha":1049,"x_min":183,"x_max":924,"o":"m 183 0 l 183 717 l 917 717 l 917 594 l 350 594 l 350 435 l 681 435 l 681 313 l 350 313 l 350 135 l 924 135 l 924 0 l 183 0 m 369 825 l 369 981 l 508 981 l 508 825 l 369 825 m 600 825 l 600 981 l 739 981 l 739 825 l 600 825 "},"Ì":{"ha":533,"x_min":79,"x_max":368,"o":"m 183 0 l 183 717 l 350 717 l 350 0 l 183 0 m 368 793 l 279 793 l 79 1028 l 229 1028 l 368 793 "},"Í":{"ha":533,"x_min":168,"x_max":457,"o":"m 183 0 l 183 717 l 350 717 l 350 0 l 183 0 m 168 793 l 307 1028 l 457 1028 l 257 793 l 168 793 "},"Î":{"ha":533,"x_min":67,"x_max":469,"o":"m 183 0 l 183 717 l 350 717 l 350 0 l 183 0 m 67 792 l 194 1028 l 342 1028 l 469 792 l 381 792 l 268 935 l 154 792 l 67 792 "},"Ï":{"ha":533,"x_min":83,"x_max":453,"o":"m 183 0 l 183 717 l 350 717 l 350 0 l 183 0 m 83 825 l 83 981 l 222 981 l 222 825 l 83 825 m 314 825 l 314 981 l 453 981 l 453 825 l 314 825 "},"Ð":{"ha":1176,"x_min":50,"x_max":1054,"o":"m 183 0 l 183 310 l 50 310 l 50 442 l 183 442 l 183 717 l 644 717 q 951 624 847 717 q 1054 363 1054 531 q 1013 181 1054 261 q 896 56 971 101 q 770 12 843 24 q 601 0 697 0 l 183 0 m 350 135 l 565 135 q 703 146 644 135 q 802 183 763 157 q 862 254 842 210 q 882 365 882 299 q 823 532 882 475 q 646 589 764 589 l 350 589 l 350 442 l 617 442 l 617 310 l 350 310 l 350 135 "},"Ñ":{"ha":1207,"x_min":182,"x_max":1025,"o":"m 182 0 l 182 717 l 296 717 l 800 294 q 842 258 822 276 q 882 217 863 239 q 877 292 879 261 q 875 340 875 324 l 875 717 l 1025 717 l 1025 0 l 911 0 l 385 443 q 355 471 369 457 q 325 501 340 485 q 331 431 329 460 q 332 388 332 403 l 332 0 l 182 0 m 808 985 q 761 869 793 906 q 674 832 729 832 q 626 839 651 832 l 569 856 q 526 863 544 863 q 468 817 482 863 l 400 817 q 531 965 426 965 q 588 956 557 965 l 647 939 q 682 935 664 935 q 718 947 703 935 q 740 985 733 960 l 808 985 "},"Ò":{"ha":1219,"x_min":168,"x_max":1051,"o":"m 335 135 l 885 135 l 885 589 l 335 589 l 335 135 m 168 547 q 177 631 168 597 q 207 683 186 664 q 262 709 228 701 q 346 717 296 717 l 874 717 q 958 709 924 717 q 1013 683 992 701 q 1042 631 1033 664 q 1051 547 1051 597 l 1051 169 q 1042 86 1051 119 q 1013 34 1033 53 q 958 8 992 15 q 874 0 924 0 l 346 0 q 262 8 296 0 q 207 34 228 15 q 177 86 186 53 q 168 169 168 119 l 168 547 m 710 793 l 621 793 l 421 1028 l 571 1028 l 710 793 "},"Ó":{"ha":1219,"x_min":168,"x_max":1051,"o":"m 335 135 l 885 135 l 885 589 l 335 589 l 335 135 m 168 547 q 177 631 168 597 q 207 683 186 664 q 262 709 228 701 q 346 717 296 717 l 874 717 q 958 709 924 717 q 1013 683 992 701 q 1042 631 1033 664 q 1051 547 1051 597 l 1051 169 q 1042 86 1051 119 q 1013 34 1033 53 q 958 8 992 15 q 874 0 924 0 l 346 0 q 262 8 296 0 q 207 34 228 15 q 177 86 186 53 q 168 169 168 119 l 168 547 m 510 793 l 649 1028 l 799 1028 l 599 793 l 510 793 "},"Ô":{"ha":1219,"x_min":168,"x_max":1051,"o":"m 335 135 l 885 135 l 885 589 l 335 589 l 335 135 m 168 547 q 177 631 168 597 q 207 683 186 664 q 262 709 228 701 q 346 717 296 717 l 874 717 q 958 709 924 717 q 1013 683 992 701 q 1042 631 1033 664 q 1051 547 1051 597 l 1051 169 q 1042 86 1051 119 q 1013 34 1033 53 q 958 8 992 15 q 874 0 924 0 l 346 0 q 262 8 296 0 q 207 34 228 15 q 177 86 186 53 q 168 169 168 119 l 168 547 m 408 792 l 536 1028 l 683 1028 l 811 792 l 722 792 l 610 935 l 496 792 l 408 792 "},"Õ":{"ha":1219,"x_min":168,"x_max":1051,"o":"m 335 135 l 885 135 l 885 589 l 335 589 l 335 135 m 168 547 q 177 631 168 597 q 207 683 186 664 q 262 709 228 701 q 346 717 296 717 l 874 717 q 958 709 924 717 q 1013 683 992 701 q 1042 631 1033 664 q 1051 547 1051 597 l 1051 169 q 1042 86 1051 119 q 1013 34 1033 53 q 958 8 992 15 q 874 0 924 0 l 346 0 q 262 8 296 0 q 207 34 228 15 q 177 86 186 53 q 168 169 168 119 l 168 547 m 814 985 q 767 869 799 906 q 679 832 735 832 q 632 839 657 832 l 575 856 q 532 863 550 863 q 474 817 488 863 l 406 817 q 536 965 432 965 q 593 956 563 965 l 653 939 q 688 935 669 935 q 724 947 708 935 q 746 985 739 960 l 814 985 "},"Ö":{"ha":1219,"x_min":168,"x_max":1051,"o":"m 335 135 l 885 135 l 885 589 l 335 589 l 335 135 m 168 547 q 177 631 168 597 q 207 683 186 664 q 262 709 228 701 q 346 717 296 717 l 874 717 q 958 709 924 717 q 1013 683 992 701 q 1042 631 1033 664 q 1051 547 1051 597 l 1051 169 q 1042 86 1051 119 q 1013 34 1033 53 q 958 8 992 15 q 874 0 924 0 l 346 0 q 262 8 296 0 q 207 34 228 15 q 177 86 186 53 q 168 169 168 119 l 168 547 m 425 825 l 425 981 l 564 981 l 564 825 l 425 825 m 656 825 l 656 981 l 794 981 l 794 825 l 656 825 "},"×":{"ha":1157,"x_min":199,"x_max":968,"o":"m 583 481 l 901 799 l 968 732 l 650 414 l 968 96 l 901 31 l 583 347 l 265 31 l 199 96 l 517 414 l 199 732 l 265 799 l 583 481 "},"Ø":{"ha":1219,"x_min":165,"x_max":1054,"o":"m 885 589 l 819 589 l 503 135 l 885 135 l 885 589 m 168 547 q 177 631 168 597 q 207 683 186 664 q 262 709 228 701 q 346 717 296 717 l 789 717 l 917 894 l 1054 894 l 928 715 q 1026 669 1000 708 q 1051 547 1051 631 l 1051 169 q 1042 86 1051 119 q 1013 34 1033 53 q 958 8 992 15 q 874 0 924 0 l 428 0 l 303 -178 l 165 -178 l 290 3 q 194 47 219 8 q 168 169 168 86 l 168 547 m 335 135 l 401 135 l 717 589 l 335 589 l 335 135 "},"Ù":{"ha":1175,"x_min":183,"x_max":992,"o":"m 350 717 l 350 135 l 825 135 l 825 717 l 992 717 l 992 169 q 983 86 992 119 q 953 34 974 53 q 898 8 932 15 q 814 0 864 0 l 361 0 q 277 8 311 0 q 222 34 243 15 q 192 86 201 53 q 183 169 183 119 l 183 717 l 350 717 m 688 793 l 599 793 l 399 1028 l 549 1028 l 688 793 "},"Ú":{"ha":1175,"x_min":183,"x_max":992,"o":"m 350 717 l 350 135 l 825 135 l 825 717 l 992 717 l 992 169 q 983 86 992 119 q 953 34 974 53 q 898 8 932 15 q 814 0 864 0 l 361 0 q 277 8 311 0 q 222 34 243 15 q 192 86 201 53 q 183 169 183 119 l 183 717 l 350 717 m 488 793 l 626 1028 l 776 1028 l 576 793 l 488 793 "},"Û":{"ha":1175,"x_min":183,"x_max":992,"o":"m 350 717 l 350 135 l 825 135 l 825 717 l 992 717 l 992 169 q 983 86 992 119 q 953 34 974 53 q 898 8 932 15 q 814 0 864 0 l 361 0 q 277 8 311 0 q 222 34 243 15 q 192 86 201 53 q 183 169 183 119 l 183 717 l 350 717 m 386 792 l 514 1028 l 661 1028 l 789 792 l 700 792 l 588 935 l 474 792 l 386 792 "},"Ü":{"ha":1175,"x_min":183,"x_max":992,"o":"m 350 717 l 350 135 l 825 135 l 825 717 l 992 717 l 992 169 q 983 86 992 119 q 953 34 974 53 q 898 8 932 15 q 814 0 864 0 l 361 0 q 277 8 311 0 q 222 34 243 15 q 192 86 201 53 q 183 169 183 119 l 183 717 l 350 717 m 403 825 l 403 981 l 542 981 l 542 825 l 403 825 m 633 825 l 633 981 l 772 981 l 772 825 l 633 825 "},"Ý":{"ha":933,"x_min":11,"x_max":922,"o":"m 383 0 l 383 321 l 11 717 l 233 717 l 479 442 l 726 717 l 922 717 l 551 325 l 551 0 l 383 0 m 367 793 l 506 1028 l 656 1028 l 456 793 l 367 793 "},"Þ":{"ha":1032,"x_min":183,"x_max":958,"o":"m 183 717 l 347 717 l 347 590 l 797 590 q 919 558 881 590 q 958 451 958 526 l 958 292 q 919 185 958 217 q 797 153 881 153 l 347 153 l 347 0 l 183 0 l 183 717 m 347 467 l 347 276 l 722 276 q 779 287 761 276 q 797 333 797 297 l 797 410 q 779 456 797 446 q 722 467 761 467 l 347 467 "},"ß":{"ha":1842,"x_min":115,"x_max":1725,"o":"m 674 482 l 269 482 l 269 358 l 651 358 q 724 352 694 358 q 772 331 754 346 q 797 288 789 315 q 804 219 804 261 l 804 139 q 797 71 804 97 q 772 28 789 44 q 724 6 754 13 q 651 0 694 0 l 269 0 q 196 6 225 0 q 149 28 167 13 q 123 71 131 44 q 115 139 115 97 l 115 156 l 243 179 l 243 110 l 675 110 l 675 244 l 294 244 q 222 251 251 244 q 174 272 192 257 q 148 315 156 288 q 140 383 140 342 l 140 449 q 148 517 140 490 q 174 560 156 544 q 222 581 192 575 q 294 588 251 588 l 643 588 q 760 562 724 588 q 797 460 797 536 l 797 446 l 674 419 l 674 482 m 1594 482 l 1190 482 l 1190 358 l 1572 358 q 1645 352 1615 358 q 1692 331 1675 346 q 1717 288 1710 315 q 1725 219 1725 261 l 1725 139 q 1717 71 1725 97 q 1692 28 1710 44 q 1645 6 1675 13 q 1572 0 1615 0 l 1190 0 q 1117 6 1146 0 q 1069 28 1088 13 q 1044 71 1051 44 q 1036 139 1036 97 l 1036 156 l 1164 179 l 1164 110 l 1596 110 l 1596 244 l 1215 244 q 1142 251 1172 244 q 1094 272 1113 257 q 1069 315 1076 288 q 1061 383 1061 342 l 1061 449 q 1069 517 1061 490 q 1094 560 1076 544 q 1142 581 1113 575 q 1215 588 1172 588 l 1564 588 q 1681 562 1644 588 q 1718 460 1718 536 l 1718 446 l 1594 419 l 1594 482 "},"à":{"ha":897,"x_min":42,"x_max":882,"o":"m 319 236 l 589 236 l 451 481 l 319 236 m 42 0 l 390 588 l 528 588 l 882 0 l 721 0 l 647 129 l 258 129 l 185 0 l 42 0 m 549 664 l 460 664 l 260 899 l 410 899 l 549 664 "},"á":{"ha":897,"x_min":42,"x_max":882,"o":"m 319 236 l 589 236 l 451 481 l 319 236 m 42 0 l 390 588 l 528 588 l 882 0 l 721 0 l 647 129 l 258 129 l 185 0 l 42 0 m 349 664 l 488 899 l 638 899 l 438 664 l 349 664 "},"â":{"ha":897,"x_min":42,"x_max":882,"o":"m 319 236 l 589 236 l 451 481 l 319 236 m 42 0 l 390 588 l 528 588 l 882 0 l 721 0 l 647 129 l 258 129 l 185 0 l 42 0 m 247 663 l 375 899 l 522 899 l 650 663 l 561 663 l 449 806 l 335 663 l 247 663 "},"ã":{"ha":897,"x_min":42,"x_max":882,"o":"m 319 236 l 589 236 l 451 481 l 319 236 m 42 0 l 390 588 l 528 588 l 882 0 l 721 0 l 647 129 l 258 129 l 185 0 l 42 0 m 653 856 q 606 740 638 776 q 518 703 574 703 q 471 710 496 703 l 414 726 q 371 733 389 733 q 313 688 326 733 l 244 688 q 375 836 271 836 q 432 826 401 836 l 492 810 q 526 806 508 806 q 563 818 547 806 q 585 856 578 831 l 653 856 "},"ä":{"ha":897,"x_min":42,"x_max":882,"o":"m 319 236 l 589 236 l 451 481 l 319 236 m 42 0 l 390 588 l 528 588 l 882 0 l 721 0 l 647 129 l 258 129 l 185 0 l 42 0 m 264 696 l 264 851 l 403 851 l 403 696 l 264 696 m 494 696 l 494 851 l 633 851 l 633 696 l 494 696 "},"å":{"ha":897,"x_min":42,"x_max":882,"o":"m 319 236 l 589 236 l 451 481 l 319 236 m 42 0 l 390 588 l 528 588 l 882 0 l 721 0 l 647 129 l 258 129 l 185 0 l 42 0 m 275 825 q 288 893 275 861 q 325 949 301 925 q 381 986 349 972 q 449 1000 413 1000 q 517 986 485 1000 q 572 949 549 972 q 610 893 596 925 q 624 825 624 861 q 610 756 624 788 q 572 700 596 724 q 517 663 549 676 q 449 650 485 650 q 381 663 413 650 q 325 700 349 676 q 288 756 301 724 q 275 825 275 788 m 363 825 q 388 763 363 789 q 450 738 414 738 q 511 763 486 738 q 536 825 536 789 q 511 886 536 861 q 450 911 486 911 q 388 886 414 911 q 363 825 363 861 "},"æ":{"ha":1247,"x_min":21,"x_max":1171,"o":"m 631 253 l 631 499 l 604 499 l 390 253 l 631 253 m 1171 111 l 1171 0 l 631 0 l 631 146 l 310 146 l 183 0 l 21 0 l 536 588 l 1165 588 l 1165 483 l 767 483 l 767 356 l 1051 356 l 1051 254 l 767 254 l 767 111 l 1171 111 "},"ç":{"ha":894,"x_min":117,"x_max":790,"o":"m 646 479 l 260 479 l 260 113 l 646 113 l 646 238 l 790 208 l 790 139 q 783 71 790 97 q 757 28 775 44 q 709 6 739 13 q 636 0 679 0 l 269 0 q 196 6 225 0 q 149 28 167 13 q 124 72 131 44 q 117 139 117 99 l 117 449 q 124 517 117 490 q 149 559 132 543 q 196 581 167 575 q 269 588 225 588 l 636 588 q 709 581 679 588 q 757 560 739 575 q 783 517 775 544 q 790 449 790 490 l 790 392 l 646 371 l 646 479 m 299 -294 l 299 -214 q 472 -243 411 -243 q 546 -192 546 -243 q 522 -150 546 -162 q 449 -137 497 -137 q 435 -138 442 -137 q 421 -139 428 -139 l 421 0 l 482 0 l 482 -64 l 493 -64 q 653 -194 653 -64 q 610 -290 653 -256 q 483 -324 567 -324 q 404 -317 451 -324 q 299 -294 357 -310 "},"è":{"ha":844,"x_min":131,"x_max":768,"o":"m 131 0 l 131 588 l 761 588 l 761 483 l 275 483 l 275 356 l 558 356 l 558 254 l 275 254 l 275 110 l 768 110 l 768 0 l 131 0 m 544 664 l 456 664 l 256 899 l 406 899 l 544 664 "},"é":{"ha":844,"x_min":131,"x_max":768,"o":"m 131 0 l 131 588 l 761 588 l 761 483 l 275 483 l 275 356 l 558 356 l 558 254 l 275 254 l 275 110 l 768 110 l 768 0 l 131 0 m 344 664 l 483 899 l 633 899 l 433 664 l 344 664 "},"ê":{"ha":844,"x_min":131,"x_max":768,"o":"m 131 0 l 131 588 l 761 588 l 761 483 l 275 483 l 275 356 l 558 356 l 558 254 l 275 254 l 275 110 l 768 110 l 768 0 l 131 0 m 243 663 l 371 899 l 518 899 l 646 663 l 557 663 l 444 806 l 331 663 l 243 663 "},"ë":{"ha":844,"x_min":131,"x_max":768,"o":"m 131 0 l 131 588 l 761 588 l 761 483 l 275 483 l 275 356 l 558 356 l 558 254 l 275 254 l 275 110 l 768 110 l 768 0 l 131 0 m 260 696 l 260 851 l 399 851 l 399 696 l 260 696 m 490 696 l 490 851 l 629 851 l 629 696 l 490 696 "},"ì":{"ha":404,"x_min":15,"x_max":304,"o":"m 131 0 l 131 588 l 274 588 l 274 0 l 131 0 m 304 664 l 215 664 l 15 899 l 165 899 l 304 664 "},"í":{"ha":404,"x_min":104,"x_max":393,"o":"m 131 0 l 131 588 l 274 588 l 274 0 l 131 0 m 104 664 l 243 899 l 393 899 l 193 664 l 104 664 "},"î":{"ha":404,"x_min":3,"x_max":406,"o":"m 131 0 l 131 588 l 274 588 l 274 0 l 131 0 m 3 663 l 131 899 l 278 899 l 406 663 l 317 663 l 204 806 l 90 663 l 3 663 "},"ï":{"ha":404,"x_min":19,"x_max":389,"o":"m 131 0 l 131 588 l 274 588 l 274 0 l 131 0 m 19 696 l 19 851 l 158 851 l 158 696 l 19 696 m 250 696 l 250 851 l 389 851 l 389 696 l 250 696 "},"ñ":{"ha":989,"x_min":131,"x_max":857,"o":"m 131 0 l 131 588 l 229 588 l 728 197 l 728 588 l 857 588 l 857 0 l 758 0 l 261 396 l 261 0 l 131 0 m 699 856 q 651 740 683 776 q 564 703 619 703 q 517 710 542 703 l 460 726 q 417 733 435 733 q 358 688 372 733 l 290 688 q 421 836 317 836 q 478 826 447 836 l 538 810 q 572 806 554 806 q 608 818 593 806 q 631 856 624 831 l 699 856 "},"ò":{"ha":993,"x_min":117,"x_max":876,"o":"m 117 449 q 124 517 117 490 q 150 560 132 544 q 197 582 168 576 q 269 588 226 588 l 724 588 q 796 582 767 588 q 843 560 825 576 q 869 517 861 544 q 876 449 876 490 l 876 139 q 869 70 876 97 q 843 28 861 43 q 796 6 825 13 q 724 0 767 0 l 269 0 q 196 6 225 0 q 149 28 167 13 q 124 70 132 43 q 117 139 117 97 l 117 449 m 260 113 l 733 113 l 733 479 l 260 479 l 260 113 m 597 664 l 508 664 l 308 899 l 458 899 l 597 664 "},"ó":{"ha":993,"x_min":117,"x_max":876,"o":"m 117 449 q 124 517 117 490 q 150 560 132 544 q 197 582 168 576 q 269 588 226 588 l 724 588 q 796 582 767 588 q 843 560 825 576 q 869 517 861 544 q 876 449 876 490 l 876 139 q 869 70 876 97 q 843 28 861 43 q 796 6 825 13 q 724 0 767 0 l 269 0 q 196 6 225 0 q 149 28 167 13 q 124 70 132 43 q 117 139 117 97 l 117 449 m 260 113 l 733 113 l 733 479 l 260 479 l 260 113 m 397 664 l 536 899 l 686 899 l 486 664 l 397 664 "},"ô":{"ha":993,"x_min":117,"x_max":876,"o":"m 117 449 q 124 517 117 490 q 150 560 132 544 q 197 582 168 576 q 269 588 226 588 l 724 588 q 796 582 767 588 q 843 560 825 576 q 869 517 861 544 q 876 449 876 490 l 876 139 q 869 70 876 97 q 843 28 861 43 q 796 6 825 13 q 724 0 767 0 l 269 0 q 196 6 225 0 q 149 28 167 13 q 124 70 132 43 q 117 139 117 97 l 117 449 m 260 113 l 733 113 l 733 479 l 260 479 l 260 113 m 296 663 l 424 899 l 571 899 l 699 663 l 610 663 l 497 806 l 383 663 l 296 663 "},"õ":{"ha":993,"x_min":117,"x_max":876,"o":"m 117 449 q 124 517 117 490 q 150 560 132 544 q 197 582 168 576 q 269 588 226 588 l 724 588 q 796 582 767 588 q 843 560 825 576 q 869 517 861 544 q 876 449 876 490 l 876 139 q 869 70 876 97 q 843 28 861 43 q 796 6 825 13 q 724 0 767 0 l 269 0 q 196 6 225 0 q 149 28 167 13 q 124 70 132 43 q 117 139 117 97 l 117 449 m 260 113 l 733 113 l 733 479 l 260 479 l 260 113 m 701 856 q 654 740 686 776 q 567 703 622 703 q 519 710 544 703 l 463 726 q 419 733 438 733 q 361 688 375 733 l 293 688 q 424 836 319 836 q 481 826 450 836 l 540 810 q 575 806 557 806 q 611 818 596 806 q 633 856 626 831 l 701 856 "},"ö":{"ha":993,"x_min":117,"x_max":876,"o":"m 117 449 q 124 517 117 490 q 150 560 132 544 q 197 582 168 576 q 269 588 226 588 l 724 588 q 796 582 767 588 q 843 560 825 576 q 869 517 861 544 q 876 449 876 490 l 876 139 q 869 70 876 97 q 843 28 861 43 q 796 6 825 13 q 724 0 767 0 l 269 0 q 196 6 225 0 q 149 28 167 13 q 124 70 132 43 q 117 139 117 97 l 117 449 m 260 113 l 733 113 l 733 479 l 260 479 l 260 113 m 313 696 l 313 851 l 451 851 l 451 696 l 313 696 m 543 696 l 543 851 l 682 851 l 682 696 l 543 696 "},"÷":{"ha":1157,"x_min":172,"x_max":985,"o":"m 579 750 q 639 725 614 750 q 664 664 664 700 q 640 604 664 629 q 579 579 615 579 q 519 603 543 579 q 494 664 494 628 q 519 725 494 700 q 579 750 544 750 m 985 461 l 985 367 l 172 367 l 172 461 l 985 461 m 579 249 q 639 224 614 249 q 664 164 664 200 q 640 104 664 129 q 579 79 615 79 q 519 103 543 79 q 494 164 494 128 q 519 224 494 200 q 579 249 544 249 "},"ø":{"ha":993,"x_min":117,"x_max":881,"o":"m 260 113 l 322 113 l 588 479 l 260 479 l 260 113 m 119 449 q 127 517 119 490 q 153 560 135 544 q 200 581 171 575 q 272 588 229 588 l 653 588 l 763 733 l 881 733 l 772 586 q 857 549 835 581 q 879 449 879 517 l 879 139 q 872 72 879 99 q 847 28 865 44 q 800 6 829 13 q 726 0 771 0 l 343 0 l 236 -146 l 117 -146 l 225 3 q 142 39 165 7 q 119 139 119 71 l 119 449 m 735 479 l 674 479 l 408 113 l 735 113 l 735 479 "},"ù":{"ha":957,"x_min":131,"x_max":826,"o":"m 274 588 l 274 110 l 682 110 l 682 588 l 826 588 l 826 139 q 819 71 826 97 q 793 28 811 44 q 745 6 775 13 q 672 0 715 0 l 283 0 q 210 6 239 0 q 163 28 181 13 q 138 71 146 44 q 131 139 131 97 l 131 588 l 274 588 m 579 664 l 490 664 l 290 899 l 440 899 l 579 664 "},"ú":{"ha":957,"x_min":131,"x_max":826,"o":"m 274 588 l 274 110 l 682 110 l 682 588 l 826 588 l 826 139 q 819 71 826 97 q 793 28 811 44 q 745 6 775 13 q 672 0 715 0 l 283 0 q 210 6 239 0 q 163 28 181 13 q 138 71 146 44 q 131 139 131 97 l 131 588 l 274 588 m 379 664 l 518 899 l 668 899 l 468 664 l 379 664 "},"û":{"ha":957,"x_min":131,"x_max":826,"o":"m 274 588 l 274 110 l 682 110 l 682 588 l 826 588 l 826 139 q 819 71 826 97 q 793 28 811 44 q 745 6 775 13 q 672 0 715 0 l 283 0 q 210 6 239 0 q 163 28 181 13 q 138 71 146 44 q 131 139 131 97 l 131 588 l 274 588 m 278 663 l 406 899 l 553 899 l 681 663 l 592 663 l 479 806 l 365 663 l 278 663 "},"ü":{"ha":957,"x_min":131,"x_max":826,"o":"m 274 588 l 274 110 l 682 110 l 682 588 l 826 588 l 826 139 q 819 71 826 97 q 793 28 811 44 q 745 6 775 13 q 672 0 715 0 l 283 0 q 210 6 239 0 q 163 28 181 13 q 138 71 146 44 q 131 139 131 97 l 131 588 l 274 588 m 294 696 l 294 851 l 433 851 l 433 696 l 294 696 m 525 696 l 525 851 l 664 851 l 664 696 l 525 696 "},"ý":{"ha":824,"x_min":32,"x_max":815,"o":"m 353 0 l 353 264 l 32 588 l 225 588 l 435 368 l 647 588 l 815 588 l 496 267 l 496 0 l 353 0 m 313 664 l 451 899 l 601 899 l 401 664 l 313 664 "},"ÿ":{"ha":824,"x_min":32,"x_max":815,"o":"m 353 0 l 353 264 l 32 588 l 225 588 l 435 368 l 647 588 l 815 588 l 496 267 l 496 0 l 353 0 m 228 696 l 228 851 l 367 851 l 367 696 l 228 696 m 458 696 l 458 851 l 597 851 l 597 696 l 458 696 "}}}
